{
.appVersion = "1193";
DisplayStrings = (
"/dcaron  /lcaron  /tcaron",
"/Lcaron/dcaron/lcaron/tcaron"
);
copyright = "Copyright 2019 Tomorrow Authors (https://github.com/googlefonts/Tomorrow), with Reserved Font Name “Tomorrow”.";
date = "2016-03-09 15:11:54 +0000";
designer = "Tony de Marco";
designerURL = "http://www.tonydemarco.com.br";
familyName = Tomorrow;
featurePrefixes = (
{
automatic = 1;
code = "languagesystem DFLT dflt;\012languagesystem latn dflt;\012languagesystem latn ROM;\012languagesystem latn MOL;\012languagesystem latn KAZ;\012languagesystem latn TAT;\012languagesystem latn TRK;\012languagesystem latn CRT;\012languagesystem latn AZE;\012";
name = Languagesystems;
}
);
features = (
{
automatic = 1;
code = "feature ccmp;\012feature locl;\012feature ordn;\012";
name = aalt;
},
{
automatic = 1;
code = "lookup ccmp_Other_1 {\012	@CombiningTopAccents = [acutecomb brevecomb caroncomb circumflexcomb commaturnedabovecomb dieresiscomb dotaccentcomb gravecomb hungarumlautcomb macroncomb ringcomb tildecomb];\012	@CombiningNonTopAccents = [cedillacomb ogonekcomb slashlongcomb slashshortcomb strokeshortcomb];\012	sub [i]' @CombiningTopAccents by [idotless];\012	sub [i]' @CombiningNonTopAccents @CombiningTopAccents by [idotless];\012} ccmp_Other_1;\012";
disabled = 1;
name = ccmp;
},
{
automatic = 1;
code = "script latn;\012language ROM;\012sub Scedilla by Scommaaccent;\012sub scedilla by scommaaccent;\012sub Tcedilla by Tcommaaccent;\012sub tcedilla by tcommaaccent;\012language MOL;\012sub Scedilla by Scommaaccent;\012sub scedilla by scommaaccent;\012sub Tcedilla by Tcommaaccent;\012sub tcedilla by tcommaaccent;\012language KAZ;\012sub i by idotaccent;\012language TAT;\012sub i by idotaccent;\012language TRK;\012sub i by idotaccent;\012language CRT;\012sub i by idotaccent;\012language AZE;\012sub i by idotaccent;\012";
name = locl;
},
{
automatic = 1;

glyphs = (
{
glyphname = A;
lastChange = "2019-04-12 11:47:55 +0000";
layers = (
{
anchors = (
{
name = bottom;
position = "{386, 0}";
},
{
name = ogonek;
position = "{541, 0}";
},
{
name = top;
position = "{386, 670}";
}
);
background = {
paths = (
{
closed = 1;
nodes = (
"360 0 LINE",
"360 545 LINE",
"412 545 LINE",
"412 0 LINE",
"742 0 LINE",
"742 585 LINE",
"638 670 LINE",
"134 670 LINE",
"30 585 LINE",
"30 0 LINE"
);
}
);
};
hints = (
{
origin = "{0, 6}";
type = Corner;
name = _corner.dia_esq;
options = 1;
},
{
origin = "{0, 5}";
type = Corner;
name = _corner.dia_dir;
options = 1;
}
);
layerId = "209BF778-B46C-485B-99E1-60046645AA57";
paths = (
{
closed = 1;
nodes = (
"360 0 LINE",
"360 545 LINE",
"412 545 LINE",
"412 0 LINE",
"742 0 LINE",
"742 670 LINE",
"30 670 LINE",
"30 0 LINE"
);
},
{
closed = 1;
nodes = (
"494 220 LINE",
"494 389 LINE",
"272 389 LINE",
"272 220 LINE"
);
}
);
width = 772;
}
);
leftKerningGroup = A;
rightKerningGroup = A;
unicode = 0041;
},
{
glyphname = AE;
lastChange = "2019-01-02 21:31:45 +0000";
layers = (
{
components = (
{
name = A;
}
);
layerId = "209BF778-B46C-485B-99E1-60046645AA57";
paths = (
{
closed = 1;
nodes = (
"1043 0 LINE",
"1043 215 LINE",
"583 215 LINE",
"583 0 LINE"
);
},
{
closed = 1;
nodes = (
"1001 267 LINE",
"1001 403 LINE",
"583 403 LINE",
"583 267 LINE"
);
},
{
closed = 1;
nodes = (
"1043 455 LINE",
"1043 670 LINE",
"583 670 LINE",
"583 455 LINE"
);
}
);
width = 1073;
}
);
leftKerningGroup = A;
leftMetricsKey = A;
rightKerningGroup = E;
rightMetricsKey = E;
unicode = 00C6;
},
{
glyphname = B;
lastChange = "2019-01-02 21:31:45 +0000";
layers = (
{
components = (
{
name = _part.H;
}
);
hints = (
{
place = "{643, 0}";
type = Corner;
name = _corner.dia_dir;
options = 1;
},
{
place = "{643, 0}";
type = Corner;
name = _corner.dia_esq;
options = 1;
},
{
origin = "{0, 4}";
type = Corner;
name = _corner.dia_dir;
options = 1;
},
{
origin = "{0, 0}";
type = Corner;
name = _corner.dia_esq;
options = 1;
}
);
layerId = "209BF778-B46C-485B-99E1-60046645AA57";
paths = (
{
closed = 1;
nodes = (
"722 0 LINE",
"722 304 LINE",
"650 360 LINE",
"703 402 LINE",
"703 670 LINE",
"40 670 LINE",
"40 545 LINE",
"412 545 LINE",
"412 406 LINE",
"283 406 LINE",
"283 299 LINE",
"412 299 LINE",
"412 125 LINE",
"40 125 LINE",
"40 0 LINE"
);
}
);
width = 752;
}
);
leftKerningGroup = H;
leftMetricsKey = H;
rightKerningGroup = B;
rightMetricsKey = O;
unicode = 0042;
},
{
glyphname = C;
lastChange = "2019-01-02 21:31:45 +0000";
layers = (
{
anchors = (
{
name = botton;
position = "{374, 0}";
},
{
name = top;
position = "{376, 670}";
}
);
background = {
hints = (
{
origin = "{0, 0}";
type = Corner;
name = _corner.dia_esq;
options = 1;
},
{
origin = "{0, 1}";
type = Corner;
name = _corner.dia_dir;
options = 1;
},
{
origin = "{0, 2}";
type = Corner;
name = _corner.dia_esq;
options = 1;
},
{
origin = "{0, 3}";
type = Corner;
name = _corner.dia_dir;
options = 1;
}
);
paths = (
{
closed = 1;
nodes = (
"742 0 LINE",
"742 671 LINE",
"30 671 LINE",
"30 0 LINE"
);
},
{
closed = 1;
nodes = (
"360 125 LINE",
"360 546 LINE",
"360 546 LINE",
"412 546 LINE",
"412 546 LINE",
"412 125 LINE",
"412 125 LINE",
"360 125 LINE"
);
}
);
};
hints = (
{
origin = "{0, 11}";
type = Corner;
name = _corner.dia_dir;
options = 1;
},
{
origin = "{0, 10}";
type = Corner;
name = _corner.dia_esq;
options = 1;
},
{
origin = "{0, 0}";
type = Corner;
name = _corner.dia_esq;
options = 1;
},
{
origin = "{0, 9}";
type = Corner;
name = _corner.dia_dir;
options = 1;
}
);
layerId = "209BF778-B46C-485B-99E1-60046645AA57";
paths = (
{
closed = 1;
nodes = (
"742 0 LINE",
"742 307 LINE",
"412 307 LINE",
"412 125 LINE",
"360 125 LINE",
"360 545 LINE",
"412 545 LINE",
"412 367 LINE",
"742 367 LINE",
"742 670 LINE",
"30 670 LINE",
"30 0 LINE"
);
}
);
width = 772;
}
);
leftKerningGroup = O;
leftMetricsKey = O;
rightKerningGroup = C;
rightMetricsKey = O;
unicode = 0043;
},
{
glyphname = D;
lastChange = "2019-01-02 21:31:45 +0000";
layers = (
{
anchors = (
{
name = center;
position = "{166, 340}";
},
{
name = top;
position = "{356, 670}";
}
);
components = (
{
name = _part.H;
}
);
layerId = "209BF778-B46C-485B-99E1-60046645AA57";
paths = (
{
closed = 1;
nodes = (
"588 0 LINE",
"742 135 LINE",
"742 536 LINE",
"588 671 LINE",
"30 671 LINE",
"30 546 LINE",
"412 546 LINE",
"412 125 LINE",
"30 125 LINE",
"30 0 LINE"
);
}
);
width = 772;
}
);
leftKerningGroup = H;
leftMetricsKey = H;
rightKerningGroup = D;
rightMetricsKey = O;
unicode = 0044;
},
{
glyphname = E;
lastChange = "2019-01-02 21:31:45 +0000";
layers = (
{
anchors = (
{
name = bottom;
position = "{356, 0}";
},
{
name = ogonek;
position = "{681, 0}";
},
{
name = top;
position = "{356, 670}";
}
);
components = (
{
name = _part.H;
}
);
layerId = "209BF778-B46C-485B-99E1-60046645AA57";
paths = (
{
closed = 1;
nodes = (
"681 0 LINE",
"681 215 LINE",
"241 215 LINE",
"241 0 LINE"
);
},
{
closed = 1;
nodes = (
"681 455 LINE",
"681 670 LINE",
"241 670 LINE",
"241 455 LINE"
);
},
{
closed = 1;
nodes = (
"639 267 LINE",
"639 403 LINE",
"241 403 LINE",
"241 267 LINE"
);
}
);
width = 711;
}
);
leftKerningGroup = H;
leftMetricsKey = H;
rightKerningGroup = E;
unicode = 0045;
},
{
glyphname = F;
lastChange = "2019-01-02 21:31:45 +0000";
layers = (
{
components = (
{
name = _part.H;
}
);
layerId = "209BF778-B46C-485B-99E1-60046645AA57";
paths = (
{
closed = 1;
nodes = (
"681 455 LINE",
"681 670 LINE",
"241 670 LINE",
"241 455 LINE"
);
},
{
closed = 1;
nodes = (
"636 219 LINE",
"636 403 LINE",
"241 403 LINE",
"241 219 LINE"
);
}
);
width = 711;
}
);
leftKerningGroup = H;
leftMetricsKey = H;
rightKerningGroup = F;
unicode = 0046;
},
{
glyphname = G;
lastChange = "2019-01-02 21:31:45 +0000";
layers = (
{
anchors = (
{
name = botton;
position = "{386, 0}";
},
{
name = top;
position = "{386, 670}";
}
);
hints = (
{
origin = "{0, 12}";
type = Corner;
name = _corner.dia_esq;
options = 1;
},
{
origin = "{0, 13}";
type = Corner;
name = _corner.dia_dir;
options = 1;
},
{
origin = "{0, 13}";
type = Corner;
name = _corner.dia_dir;
options = 1;
},
{
origin = "{0, 12}";
type = Corner;
name = _corner.dia_dir;
options = 1;
},
{
origin = "{0, 12}";
type = Corner;
name = _corner.dia_esq;
options = 1;
},
{
origin = "{0, 11}";
type = Corner;
name = _corner.dia_dir;
options = 1;
}
);
layerId = "209BF778-B46C-485B-99E1-60046645AA57";
paths = (
{
closed = 1;
nodes = (
"428 0 LINE",
"532 85 LINE",
"532 177 LINE",
"360 177 LINE",
"360 177 LINE",
"360 177 LINE",
"360 545 LINE",
"360 545 LINE",
"412 545 LINE",
"412 417 LINE",
"742 415 LINE",
"742 670 LINE",
"30 670 LINE",
"30 0 LINE"
);
},
{
closed = 1;
nodes = (
"742 0 LINE",
"742 365 LINE",
"412 365 LINE",
"412 229 LINE",
"479 229 LINE",
"479 145 LINE",
"509 126 LINE",
"509 0 LINE"
);
}
);
width = 772;
}
);
leftKerningGroup = O;
leftMetricsKey = O;
rightKerningGroup = G;
rightMetricsKey = H;
unicode = 0047;
},
{
glyphname = H;
lastChange = "2019-01-02 21:31:45 +0000";
layers = (
{
anchors = (
{
name = top;
position = "{386, 671}";
}
);
components = (
{
name = _part.H;
},
{
name = _part.H;
transform = "{1, 0, 0, 1, 382, 0}";
}
);
layerId = "209BF778-B46C-485B-99E1-60046645AA57";
paths = (
{
closed = 1;
nodes = (
"481 250 LINE",
"481 465 LINE",
"260 465 LINE",
"260 250 LINE"
);
}
);
width = 772;
}
);
leftKerningGroup = H;
rightKerningGroup = H;
unicode = 0048;
},
{
glyphname = Hbar;
lastChange = "2019-01-02 21:31:45 +0000";
layers = (
{
components = (
{
name = H;
}
);
layerId = "209BF778-B46C-485B-99E1-60046645AA57";
paths = (
{
closed = 1;
nodes = (
"772 517 LINE",
"772 618 LINE",
"0 618 LINE",
"0 517 LINE"
);
}
);
width = 772;
}
);
unicode = 0126;
},
{
glyphname = I;
lastChange = "2019-01-02 21:31:45 +0000";
layers = (
{
anchors = (
{
name = bottom;
position = "{242, 0}";
},
{
name = ogonek;
position = "{454, 0}";
},
{
name = top;
position = "{242, 670}";
},
{
name = topleft;
position = "{242, 670}";
}
);
components = (
{
name = _part.H;
transform = "{0.9, 0, 0, 1, 67, 0}";
}
);
layerId = "209BF778-B46C-485B-99E1-60046645AA57";
paths = (
{
closed = 1;
nodes = (
"454 469 LINE",
"454 670 LINE",
"30 670 LINE",
"30 469 LINE"
);
},
{
closed = 1;
nodes = (
"454 0 LINE",
"454 201 LINE",
"30 201 LINE",
"30 0 LINE"
);
}
);
width = 484;
}
);
leftKerningGroup = H;
rightKerningGroup = H;
unicode = 0049;
},
{
glyphname = J;
lastChange = "2019-01-02 21:31:45 +0000";
layers = (
{
anchors = (
{
name = top;
position = "{577, 670}";
}
);
background = {
hints = (
{
origin = "{0, 0}";
type = Corner;
name = _corner.dia_esq;
options = 1;
},
{
origin = "{0, 9}";
type = Corner;
name = _corner.dia_dir;
options = 1;
}
);
paths = (
{
closed = 1;
nodes = (
"742 0 LINE",
"742 670 LINE",
"412 670 LINE",
"412 125 LINE",
"412 125 LINE",
"360 125 LINE",
"360 125 LINE",
"360 342 LINE",
"30 342 LINE",
"30 0 LINE"
);
}
);
};
hints = (
{
origin = "{0, 0}";
type = Corner;
name = _corner.dia_esq;
options = 1;
},
{
origin = "{0, 7}";
type = Corner;
name = _corner.dia_dir;
options = 1;
}
);
layerId = "209BF778-B46C-485B-99E1-60046645AA57";
paths = (
{
closed = 1;
nodes = (
"742 0 LINE",
"742 670 LINE",
"412 670 LINE",
"412 125 LINE",
"360 125 LINE",
"360 342 LINE",
"30 342 LINE",
"30 0 LINE"
);
}
);
width = 772;
}
);
rightKerningGroup = J;
rightMetricsKey = H;
unicode = 004A;
},
{
glyphname = K;
lastChange = "2019-01-02 21:31:45 +0000";
layers = (
{
anchors = (
{
name = botton;
position = "{385, 0}";
},
{
name = top;
position = "{385, 670}";
}
);
components = (
{
name = _part.H;
}
);
layerId = "209BF778-B46C-485B-99E1-60046645AA57";
paths = (
{
closed = 1;
nodes = (
"740 0 LINE",
"740 253 LINE",
"625 357 LINE",
"740 460 LINE",
"740 670 LINE",
"410 670 LINE",
"410 464 LINE",
"320 464 LINE",
"320 250 LINE",
"410 250 LINE",
"410 0 LINE"
);
}
);
width = 770;
}
);
leftKerningGroup = H;
leftMetricsKey = H;
rightKerningGroup = K;
unicode = 004B;
},
{
glyphname = L;
lastChange = "2019-01-02 21:31:45 +0000";
layers = (
{
anchors = (
{
name = botton;
position = "{318, 0}";
},
{
name = top;
position = "{195, 670}";
}
);
components = (
{
name = _part.H;
}
);
layerId = "209BF778-B46C-485B-99E1-60046645AA57";
paths = (
{
closed = 1;
nodes = (
"611 0 LINE",
"611 215 LINE",
"241 215 LINE",
"241 0 LINE"
);
}
);
width = 641;
}
);
leftKerningGroup = H;
leftMetricsKey = H;
rightKerningGroup = L;
unicode = 004C;
},
{
glyphname = Ldot;
lastChange = "2019-04-10 22:32:12 +0000";
layers = (
{
components = (
{
name = L;
}
);
layerId = "209BF778-B46C-485B-99E1-60046645AA57";
paths = (
{
closed = 1;
nodes = (
"611 338 LINE",
"611 535 LINE",
"414 535 LINE",
"414 338 LINE"
);
}
);
width = 641;
}
);
rightMetricsKey = L;
unicode = 013F;
},
{
glyphname = Lslash;
lastChange = "2019-01-02 21:31:45 +0000";
layers = (
{
components = (
{
name = L;
}
);
layerId = "209BF778-B46C-485B-99E1-60046645AA57";
paths = (
{
closed = 1;
nodes = (
"-30 315 LINE",
"-30 162 LINE",
"478 385 LINE",
"478 537 LINE"
);
}
);
width = 641;
}
);
rightKerningGroup = L;
rightMetricsKey = L;
unicode = 0141;
},
{
glyphname = M;
lastChange = "2019-01-02 21:31:45 +0000";
layers = (
{
components = (
{
name = _part.H;
transform = "{1, 0, 0, 1, 542, 0}";
},
{
name = _part.H;
}
);
layerId = "209BF778-B46C-485B-99E1-60046645AA57";
paths = (
{
closed = 1;
nodes = (
"508 55 LINE",
"572 244 LINE",
"716 244 LINE",
"716 670 LINE",
"533 670 LINE",
"466 432 LINE",
"399 670 LINE",
"216 670 LINE",
"216 244 LINE",
"360 244 LINE",
"424 55 LINE"
);
}
);
width = 932;
}
);
leftKerningGroup = M;
leftMetricsKey = H;
rightKerningGroup = M;
rightMetricsKey = H;
unicode = 004D;
},
{
glyphname = N;
lastChange = "2019-01-02 21:31:45 +0000";
layers = (
{
anchors = (
{
name = botton;
position = "{394, 0}";
},
{
name = top;
position = "{393, 670}";
}
);
components = (
{
name = _part.H;
transform = "{1, 0, 0, 1, 395, 0}";
},
{
name = _part.H;
}
);
layerId = "209BF778-B46C-485B-99E1-60046645AA57";
paths = (
{
closed = 1;
nodes = (
"535 0 LINE",
"535 458 LINE",
"425 458 LINE",
"360 670 LINE",
"255 670 LINE",
"255 212 LINE",
"360 212 LINE",
"425 0 LINE"
);
}
);
width = 785;
}
);
leftKerningGroup = H;
leftMetricsKey = H;
rightKerningGroup = H;
rightMetricsKey = H;
unicode = 004E;
},
{
glyphname = Eng;
lastChange = "2019-01-02 21:31:45 +0000";
layers = (
{
components = (
{
name = _part.H;
},
{
name = _part.H;
transform = "{1, 0, 0, 1, 395, 0}";
}
);
layerId = "209BF778-B46C-485B-99E1-60046645AA57";
paths = (
{
closed = 1;
nodes = (
"535 0 LINE",
"535 458 LINE",
"425 458 LINE",
"360 670 LINE",
"255 670 LINE",
"255 212 LINE",
"360 212 LINE",
"425 0 LINE"
);
},
{
closed = 1;
nodes = (
"651 -170 LINE",
"755 -85 LINE",
"755 93 LINE",
"425 93 LINE",
"425 -55 LINE",
"425 -55 LINE",
"350 -55 LINE",
"350 -170 LINE"
);
}
);
width = 785;
}
);
leftMetricsKey = N;
rightMetricsKey = N;
unicode = 014A;
},
{
glyphname = O;
lastChange = "2019-01-02 21:31:45 +0000";
layers = (
{
anchors = (
{
name = bottom;
position = "{386, 0}";
},
{
name = center;
position = "{386, 335}";
},
{
name = horn;
position = "{671, 586}";
},
{
name = ogonek;
position = "{638, 0}";
},
{
name = top;
position = "{386, 670}";
},
{
name = topleft;
position = "{20, 670}";
},
{
name = topright;
position = "{752, 670}";
}
);
hints = (
{
origin = "{0, 2}";
type = Corner;
name = _corner.dia_esq;
options = 1;
},
{
origin = "{0, 0}";
type = Corner;
name = _corner.dia_esq;
options = 1;
},
{
origin = "{0, 1}";
type = Corner;
name = _corner.dia_dir;
options = 1;
},
{
origin = "{0, 3}";
type = Corner;
name = _corner.dia_dir;
options = 1;
}
);
layerId = "209BF778-B46C-485B-99E1-60046645AA57";
paths = (
{
closed = 1;
nodes = (
"742 0 LINE",
"742 671 LINE",
"30 671 LINE",
"30 0 LINE"
);
},
{
closed = 1;
nodes = (
"360 546 LINE",
"412 546 LINE",
"412 125 LINE",
"360 125 LINE"
);
}
);
width = 772;
}
);
leftKerningGroup = O;
rightKerningGroup = O;
unicode = 004F;
},
{
glyphname = Oslash;
lastChange = "2019-01-02 21:31:45 +0000";
layers = (
{
components = (
{
name = O;
}
);
layerId = "209BF778-B46C-485B-99E1-60046645AA57";
paths = (
{
closed = 1;
nodes = (
"572 608 LINE",
"515 641 LINE",
"201 63 LINE",
"259 31 LINE"
);
}
);
width = 772;
}
);
leftKerningGroup = O;
leftMetricsKey = O;
rightKerningGroup = O;
rightMetricsKey = O;
unicode = 00D8;
},
{
glyphname = OE;
lastChange = "2019-01-02 21:31:45 +0000";
layers = (
{
components = (
{
name = O;
}
);
layerId = "209BF778-B46C-485B-99E1-60046645AA57";
paths = (
{
closed = 1;
nodes = (
"1043 0 LINE",
"1043 215 LINE",
"603 215 LINE",
"603 0 LINE"
);
},
{
closed = 1;
nodes = (
"1043 455 LINE",
"1043 670 LINE",
"603 670 LINE",
"603 455 LINE"
);
},
{
closed = 1;
nodes = (
"1001 267 LINE",
"1001 403 LINE",
"603 403 LINE",
"603 267 LINE"
);
}
);
width = 1073;
}
);
leftKerningGroup = O;
leftMetricsKey = O;
rightKerningGroup = E;
rightMetricsKey = E;
unicode = 0152;
},
{
glyphname = P;
lastChange = "2019-01-02 21:31:45 +0000";
layers = (
{
components = (
{
name = _part.H;
}
);
hints = (
{
origin = "{0, 0}";
type = Corner;
name = _corner.dia_esq;
options = 1;
},
{
origin = "{0, 1}";
type = Corner;
name = _corner.dia_dir;
options = 1;
}
);
layerId = "209BF778-B46C-485B-99E1-60046645AA57";
paths = (
{
closed = 1;
nodes = (
"742 172 LINE",
"742 671 LINE",
"300 671 LINE",
"300 546 LINE",
"412 546 LINE",
"412 297 LINE",
"300 297 LINE",
"300 172 LINE"
);
}
);
width = 762;
}
);
leftKerningGroup = H;
leftMetricsKey = H;
rightMetricsKey = P;
unicode = 0050;
},
{
glyphname = Thorn;
lastChange = "2019-01-02 21:31:45 +0000";
layers = (
{
components = (
{
name = _part.H;
transform = "{1, 0, 0, 1, 0, 1}";
}
);
hints = (
{
origin = "{0, 0}";
type = Corner;
name = _corner.dia_esq;
options = 1;
},
{
origin = "{0, 1}";
type = Corner;
name = _corner.dia_dir;
options = 1;
}
);
layerId = "209BF778-B46C-485B-99E1-60046645AA57";
paths = (
{
closed = 1;
nodes = (
"742 97 LINE",
"742 596 LINE",
"300 596 LINE",
"300 471 LINE",
"412 471 LINE",
"412 471 LINE",
"412 222 LINE",
"412 222 LINE",
"300 222 LINE",
"300 97 LINE"
);
}
);
width = 762;
}
);
leftMetricsKey = P;
rightMetricsKey = P;
unicode = 00DE;
},
{
glyphname = Q;
lastChange = "2019-01-02 21:31:45 +0000";
layers = (
{
components = (
{
name = O;
}
);
layerId = "209BF778-B46C-485B-99E1-60046645AA57";
paths = (
{
closed = 1;
nodes = (
"504 -79 LINE",
"504 46 LINE",
"268 46 LINE",
"268 -79 LINE"
);
}
);
width = 772;
}
);
leftKerningGroup = O;
leftMetricsKey = O;
rightKerningGroup = O;
rightMetricsKey = O;
unicode = 0051;
},
{
glyphname = R;
lastChange = "2019-01-02 21:31:45 +0000";
layers = (
{
anchors = (
{
name = botton;
position = "{391, 0}";
},
{
name = top;
position = "{372, 670}";
}
);
components = (
{
name = _part.H;
}
);
hints = (
{
origin = "{0, 1}";
type = Corner;
name = _corner.dia_dir;
options = 1;
},
{
origin = "{0, 0}";
type = Corner;
name = _corner.dia_esq;
options = 1;
}
);
layerId = "209BF778-B46C-485B-99E1-60046645AA57";
paths = (
{
closed = 1;
nodes = (
"742 219 LINE",
"742 671 LINE",
"300 671 LINE",
"300 546 LINE",
"412 546 LINE",
"412 546 LINE",
"412 372 LINE",
"412 372 LINE",
"300 372 LINE",
"300 219 LINE"
);
},
{
closed = 1;
nodes = (
"774 0 LINE",
"661 302 LINE",
"360 302 LINE",
"429 0 LINE"
);
}
);
width = 784;
}
);
leftKerningGroup = H;
leftMetricsKey = H;
rightKerningGroup = R;
unicode = 0052;
},
{
glyphname = S;
lastChange = "2019-01-02 21:31:45 +0000";
layers = (
{
anchors = (
{
name = botton;
position = "{356, 0}";
},
{
name = top;
position = "{356, 670}";
}
);
hints = (
{
origin = "{0, 0}";
type = Corner;
name = _corner.dia_esq;
options = 1;
},
{
origin = "{0, 1}";
type = Corner;
name = _corner.dia_dir;
options = 1;
},
{
origin = "{0, 8}";
type = Corner;
name = _corner.dia_esq;
options = 1;
},
{
origin = "{0, 9}";
type = Corner;
name = _corner.dia_dir;
options = 1;
}
);
layerId = "209BF778-B46C-485B-99E1-60046645AA57";
paths = (
{
closed = 1;
nodes = (
"692 0 LINE",
"692 423 LINE",
"330 423 LINE",
"330 423 LINE",
"330 475 LINE",
"330 475 LINE",
"660 475 LINE",
"660 670 LINE",
"20 670 LINE",
"20 247 LINE",
"382 247 LINE",
"382 247 LINE",
"382 195 LINE",
"382 195 LINE",
"50 195 LINE",
"50 0 LINE"
);
}
);
width = 712;
}
);
leftKerningGroup = S;
rightKerningGroup = S;
unicode = 0053;
},
{
glyphname = Germandbls;
lastChange = "2019-01-02 21:31:45 +0000";
layers = (
{
background = {
paths = (
{
closed = 1;
nodes = (
"249 0 LINE",
"249 530 LINE",
"289 570 LINE",
"411 570 LINE",
"461 520 LINE",
"319 379 LINE",
"319 299 LINE",
"482 299 LINE",
"532 249 LINE",
"532 140 LINE",
"492 100 LINE",
"417 100 LINE",
"350 166 LINE",
"276 91 LINE",
"367 0 LINE",
"545 0 LINE",
"646 101 LINE",
"646 288 LINE",
"535 399 LINE",
"473 399 LINE",
"565 491 LINE",
"566 569 LINE",
"465 670 LINE",
"236 670 LINE",
"135 569 LINE",
"135 0 LINE"
);
}
);
};
layerId = "209BF778-B46C-485B-99E1-60046645AA57";
paths = (
{
closed = 1;
nodes = (
"350 0 LINE",
"350 545 LINE",
"414 545 LINE",
"414 487 LINE",
"376 403 LINE",
"571 306 LINE",
"673 509 LINE",
"673 585 LINE",
"569 670 LINE",
"134 670 LINE",
"30 585 LINE",
"30 0 LINE"
);
},
{
closed = 1;
nodes = (
"628 0 LINE",
"732 85 LINE",
"732 255 LINE",
"551 403 LINE",
"376 403 LINE",
"376 278 LINE",
"402 278 LINE",
"401 284 LINE",
"402 125 LINE",
"376 125 LINE",
"376 0 LINE"
);
}
);
width = 762;
}
);
leftMetricsKey = H;
rightMetricsKey = B;
unicode = 1E9E;
},
{
glyphname = Schwa;
lastChange = "2019-01-02 21:31:45 +0000";
layers = (
{
background = {
hints = (
{
origin = "{0, 7}";
type = Corner;
name = _corner.dia_dir;
options = 1;
},
{
origin = "{0, 8}";
type = Corner;
name = _corner.dia_esq;
options = 1;
},
{
origin = "{0, 9}";
type = Corner;
name = _corner.dia_dir;
options = 1;
}
);
paths = (
{
closed = 1;
nodes = (
"35 476 LINE",
"35 329 LINE",
"312 329 LINE",
"312 86 LINE",
"270 86 LINE",
"270 287 LINE",
"30 287 LINE",
"31 1 LINE",
"591 1 LINE",
"591 476 LINE"
);
},
{
closed = 1;
nodes = (
"30 287 LINE",
"30 194 LINE",
"354 195 LINE",
"354 287 LINE"
);
}
);
};
hints = (
{
origin = "{0, 0}";
type = Corner;
name = _corner.dia_dir;
options = 1;
},
{
origin = "{0, 1}";
type = Corner;
name = _corner.dia_esq;
options = 1;
},
{
origin = "{0, 2}";
type = Corner;
name = _corner.dia_dir;
options = 1;
}
);
layerId = "209BF778-B46C-485B-99E1-60046645AA57";
paths = (
{
closed = 1;
nodes = (
"30 0 LINE",
"742 0 LINE",
"742 671 LINE",
"349 671 LINE",
"349 546 LINE",
"412 546 LINE",
"412 125 LINE",
"360 125 LINE",
"360 403 LINE",
"30 403 LINE"
);
},
{
closed = 1;
nodes = (
"470 455 LINE",
"470 670 LINE",
"30 670 LINE",
"30 455 LINE"
);
},
{
closed = 1;
nodes = (
"428 267 LINE",
"428 403 LINE",
"30 403 LINE",
"30 267 LINE"
);
}
);
width = 772;
}
);
leftMetricsKey = O;
rightMetricsKey = O;
unicode = 018F;
},
{
glyphname = T;
lastChange = "2019-03-05 14:36:13 +0000";
layers = (
{
anchors = (
{
name = botton;
position = "{336, 0}";
},
{
name = top;
position = "{336, 670}";
}
);
components = (
{
name = _part.H;
transform = "{1, 0, 0, 1, 141, 0}";
}
);
layerId = "209BF778-B46C-485B-99E1-60046645AA57";
paths = (
{
closed = 1;
nodes = (
"662 455 LINE",
"662 670 LINE",
"10 670 LINE",
"10 455 LINE"
);
}
);
width = 672;
}
);
leftKerningGroup = T;
rightKerningGroup = T;
unicode = 0054;
},
{
glyphname = Tbar;
lastChange = "2019-01-02 21:31:45 +0000";
layers = (
{
components = (
{
name = T;
}
);
layerId = "209BF778-B46C-485B-99E1-60046645AA57";
paths = (
{
closed = 1;
nodes = (
"616 189 LINE",
"616 364 LINE",
"56 364 LINE",
"56 189 LINE"
);
}
);
width = 672;
}
);
leftKerningGroup = T;
leftMetricsKey = T;
rightKerningGroup = T;
rightMetricsKey = T;
unicode = 0166;
},
{
glyphname = U;
lastChange = "2019-01-02 21:31:45 +0000";
layers = (
{
anchors = (
{
name = bottom;
position = "{386, 0}";
},
{
name = horn;
position = "{721, 586}";
},
{
name = ogonek;
position = "{470, 0}";
},
{
name = top;
position = "{386, 670}";
},
{
name = topright;
position = "{752, 670}";
}
);
hints = (
{
origin = "{0, 6}";
type = Corner;
name = _corner.dia_esq;
options = 1;
},
{
origin = "{0, 5}";
type = Corner;
name = _corner.dia_dir;
options = 1;
}
);
layerId = "209BF778-B46C-485B-99E1-60046645AA57";
paths = (
{
closed = 1;
nodes = (
"412 670 LINE",
"412 125 LINE",
"360 125 LINE",
"360 670 LINE",
"30 670 LINE",
"30 0 LINE",
"742 0 LINE",
"742 670 LINE"
);
}
);
width = 772;
}
);
leftKerningGroup = U;
rightKerningGroup = U;
unicode = 0055;
},
{
glyphname = V;
lastChange = "2019-01-02 21:31:45 +0000";
layers = (
{
layerId = "209BF778-B46C-485B-99E1-60046645AA57";
paths = (
{
closed = 1;
nodes = (
"572 0 LINE",
"742 303 LINE",
"742 670 LINE",
"412 670 LINE",
"412 125 LINE",
"360 125 LINE",
"360 670 LINE",
"30 670 LINE",
"30 303 LINE",
"200 0 LINE"
);
}
);
width = 772;
}
);
leftKerningGroup = V;
leftMetricsKey = A;
rightKerningGroup = V;
rightMetricsKey = A;
unicode = 0056;
},
{
glyphname = W;
lastChange = "2019-01-02 21:31:45 +0000";
layers = (
{
anchors = (
{
name = bottom;
position = "{552, 0}";
},
{
name = top;
position = "{552, 670}";
}
);
layerId = "209BF778-B46C-485B-99E1-60046645AA57";
paths = (
{
closed = 1;
nodes = (
"497 0 LINE",
"552 72 LINE",
"607 0 LINE",
"914 0 LINE",
"1084 292 LINE",
"1084 670 LINE",
"754 670 LINE",
"754 125 LINE",
"702 125 LINE",
"702 670 LINE",
"402 670 LINE",
"402 125 LINE",
"350 125 LINE",
"350 670 LINE",
"20 670 LINE",
"20 292 LINE",
"190 0 LINE"
);
}
);
width = 1104;
}
);
leftKerningGroup = W;
rightKerningGroup = W;
unicode = 0057;
},
{
glyphname = X;
lastChange = "2019-01-02 21:31:45 +0000";
layers = (
{
associatedMasterId = "209BF778-B46C-485B-99E1-60046645AA57";
layerId = "72ED1C2B-BE7A-4623-8452-C3DFD40D6DEA";
name = "Bold Oct 7 16, 20:48";
paths = (
{
closed = 1;
nodes = (
"360 0 LINE",
"360 250 LINE",
"410 250 LINE",
"410 0 LINE",
"740 0 LINE",
"740 272 LINE",
"655 357 LINE",
"740 442 LINE",
"740 670 LINE",
"410 670 LINE",
"410 464 LINE",
"360 464 LINE",
"360 670 LINE",
"30 670 LINE",
"30 442 LINE",
"115 357 LINE",
"30 272 LINE",
"30 0 LINE"
);
}
);
width = 770;
},
{
layerId = "209BF778-B46C-485B-99E1-60046645AA57";
paths = (
{
closed = 1;
nodes = (
"360 0 LINE",
"360 250 LINE",
"410 250 LINE",
"410 0 LINE",
"740 0 LINE",
"740 283 LINE",
"655 357 LINE",
"740 430 LINE",
"740 670 LINE",
"410 670 LINE",
"410 464 LINE",
"360 464 LINE",
"360 670 LINE",
"30 670 LINE",
"30 430 LINE",
"115 357 LINE",
"30 283 LINE",
"30 0 LINE"
);
}
);
width = 770;
}
);
leftKerningGroup = X;
leftMetricsKey = A;
rightKerningGroup = X;
rightMetricsKey = A;
unicode = 0058;
},
{
glyphname = Y;
lastChange = "2019-01-02 21:31:45 +0000";
layers = (
{
anchors = (
{
name = bottom;
position = "{375, 0}";
},
{
name = top;
position = "{375, 670}";
},
{
name = topleft;
position = "{20, 670}";
}
);
layerId = "209BF778-B46C-485B-99E1-60046645AA57";
paths = (
{
closed = 1;
nodes = (
"540 0 LINE",
"540 186 LINE",
"730 350 LINE",
"730 670 LINE",
"400 670 LINE",
"400 334 LINE",
"350 334 LINE",
"350 670 LINE",
"20 670 LINE",
"20 350 LINE",
"210 187 LINE",
"210 0 LINE"
);
}
);
width = 750;
}
);
leftKerningGroup = Y;
rightKerningGroup = Y;
unicode = 0059;
},
{
glyphname = Z;
lastChange = "2019-01-02 21:31:45 +0000";
layers = (
{
anchors = (
{
name = top;
position = "{346, 670}";
}
);
layerId = "209BF778-B46C-485B-99E1-60046645AA57";
paths = (
{
closed = 1;
nodes = (
"671 0 LINE",
"671 215 LINE",
"423 215 LINE",
"671 455 LINE",
"671 670 LINE",
"31 670 LINE",
"31 455 LINE",
"268 455 LINE",
"20 215 LINE",
"20 0 LINE"
);
}
);
width = 691;
}
);
leftKerningGroup = Z;
rightKerningGroup = Z;
unicode = 005A;
},
{
glyphname = a;
lastChange = "2019-01-02 21:31:45 +0000";
layers = (
{
anchors = (
{
name = bottom;
position = "{315, 0}";
},
{
name = ogonek;
position = "{425, 0}";
},
{
name = top;
position = "{315, 475}";
}
);
hints = (
{
origin = "{1, 1}";
type = Corner;
name = _corner.dia_dir;
options = 1;
},
{
origin = "{0, 8}";
type = Corner;
name = _corner.dia_dir;
options = 1;
},
{
origin = "{0, 9}";
type = Corner;
name = _corner.dia_esq;
options = 1;
}
);
layerId = "209BF778-B46C-485B-99E1-60046645AA57";
paths = (
{
closed = 1;
nodes = (
"253 0 LINE",
"327 82 LINE",
"327 169 LINE",
"293 131 LINE",
"259 93 LINE",
"259 220 LINE",
"331 220 LINE",
"331 293 LINE",
"10 293 LINE",
"10 0 LINE"
);
},
{
closed = 1;
nodes = (
"580 0 LINE",
"580 475 LINE",
"66 475 LINE",
"66 335 LINE",
"253 335 LINE",
"301 335 LINE",
"301 0 LINE"
);
}
);
width = 610;
}
);
leftKerningGroup = a;
rightKerningGroup = n;
unicode = 0061;
},
{
glyphname = ae;
lastChange = "2019-01-02 21:31:45 +0000";
layers = (
{
hints = (
{
origin = "{0, 8}";
type = Corner;
name = _corner.dia_dir;
options = 1;
},
{
origin = "{0, 9}";
type = Corner;
name = _corner.dia_esq;
options = 1;
},
{
origin = "{1, 1}";
type = Corner;
name = _corner.dia_dir;
options = 1;
},
{
origin = "{2, 7}";
type = Corner;
name = _corner.dia_dir;
options = 1;
},
{
origin = "{2, 8}";
type = Corner;
name = _corner.dia_esq;
options = 1;
},
{
origin = "{2, 9}";
type = Corner;
name = _corner.dia_dir;
options = 1;
}
);
layerId = "209BF778-B46C-485B-99E1-60046645AA57";
paths = (
{
closed = 1;
nodes = (
"253 0 LINE",
"327 82 LINE",
"327 169 LINE",
"293 131 LINE",
"259 93 LINE",
"259 220 LINE",
"331 220 LINE",
"331 293 LINE",
"10 293 LINE",
"10 0 LINE"
);
},
{
closed = 1;
nodes = (
"580 122 LINE",
"580 475 LINE",
"66 475 LINE",
"66 335 LINE",
"253 335 LINE",
"301 335 LINE",
"301 122 LINE"
);
},
{
closed = 1;
nodes = (
"856 0 LINE",
"856 147 LINE",
"580 147 LINE",
"580 390 LINE",
"622 390 LINE",
"622 189 LINE",
"861 189 LINE",
"861 475 LINE",
"301 475 LINE",
"301 0 LINE"
);
},
{
closed = 1;
nodes = (
"861 189 LINE",
"861 281 LINE",
"538 281 LINE",
"538 189 LINE"
);
}
);
width = 886;
}
);
leftKerningGroup = a;
leftMetricsKey = a;
rightKerningGroup = e;
rightMetricsKey = e;
unicode = 00E6;
},
{
glyphname = c;
lastChange = "2019-01-02 21:31:45 +0000";
layers = (
{
anchors = (
{
name = botton;
position = "{325, 0}";
},
{
name = top;
position = "{325, 475}";
}
);
hints = (
{
origin = "{0, 10}";
type = Corner;
name = _corner.dia_dir;
options = 1;
},
{
origin = "{0, 11}";
type = Corner;
name = _corner.dia_esq;
options = 1;
},
{
origin = "{0, 12}";
type = Corner;
name = _corner.dia_dir;
options = 1;
}
);
layerId = "209BF778-B46C-485B-99E1-60046645AA57";
paths = (
{
closed = 1;
nodes = (
"521 0 LINE",
"625 85 LINE",
"625 219 LINE",
"346 219 LINE",
"346 85 LINE",
"304 85 LINE",
"304 390 LINE",
"346 390 LINE",
"346 261 LINE",
"625 261 LINE",
"625 475 LINE",
"25 475 LINE",
"25 0 LINE"
);
}
);
width = 655;
}
);
leftKerningGroup = o;
leftMetricsKey = o;
rightKerningGroup = e;
unicode = 0063;
},
{
glyphname = eth;
lastChange = "2019-01-02 21:31:45 +0000";
layers = (
{
layerId = "209BF778-B46C-485B-99E1-60046645AA57";
paths = (
{
closed = 1;
nodes = (
"521 0 LINE",
"625 85 LINE",
"625 390 LINE",
"389 727 LINE",
"203 598 LINE",
"316 436 LINE",
"129 435 LINE",
"25 350 LINE",
"25 85 LINE",
"129 0 LINE"
);
},
{
closed = 1;
nodes = (
"304 350 LINE",
"346 350 LINE",
"346 85 LINE",
"304 85 LINE"
);
},
{
closed = 1;
nodes = (
"522 639 LINE",
"463 721 LINE",
"186 526 LINE",
"245 443 LINE"
);
}
);
width = 650;
}
);
leftKerningGroup = o;
leftMetricsKey = o;
rightKerningGroup = o;
rightMetricsKey = o;
unicode = 00F0;
},
{
glyphname = e;
lastChange = "2019-01-02 21:31:45 +0000";
layers = (
{
anchors = (
{
name = bottom;
position = "{305, 0}";
},
{
name = ogonek;
position = "{580, 0}";
},
{
name = top;
position = "{305, 475}";
}
);
hints = (
{
origin = "{0, 9}";
type = Corner;
name = _corner.dia_dir;
options = 1;
},
{
origin = "{0, 7}";
type = Corner;
name = _corner.dia_dir;
options = 1;
},
{
origin = "{0, 8}";
type = Corner;
name = _corner.dia_esq;
options = 1;
}
);
layerId = "209BF778-B46C-485B-99E1-60046645AA57";
paths = (
{
closed = 1;
nodes = (
"580 0 LINE",
"580 147 LINE",
"304 147 LINE",
"304 390 LINE",
"346 390 LINE",
"346 189 LINE",
"585 189 LINE",
"585 475 LINE",
"25 475 LINE",
"25 0 LINE"
);
},
{
closed = 1;
nodes = (
"585 189 LINE",
"585 281 LINE",
"262 281 LINE",
"262 189 LINE"
);
}
);
width = 610;
}
);
leftKerningGroup = o;
leftMetricsKey = o;
rightKerningGroup = e;
unicode = 0065;
},
{
glyphname = eogonek;
lastChange = "2019-04-10 20:37:35 +0000";
layers = (
{
anchors = (
{
name = _ogonek;
position = "{580, 0}";
}
);
components = (
{
name = e;
}
);
layerId = "209BF778-B46C-485B-99E1-60046645AA57";
paths = (
{
closed = 1;
nodes = (
"580 -180 LINE",
"580 -50 LINE",
"566 -50 LINE",
"554 -40 LINE",
"554 -21 LINE",
"580 0 LINE",
"456 0 LINE",
"414 -30 LINE",
"414 -115 LINE",
"494 -180 LINE"
);
}
);
width = 610;
}
);
leftKerningGroup = o;
leftMetricsKey = e;
rightKerningGroup = e;
rightMetricsKey = e;
unicode = 0119;
},
{
glyphname = f;
lastChange = "2019-01-02 21:31:45 +0000";
layers = (
{
layerId = "209BF778-B46C-485B-99E1-60046645AA57";
paths = (
{
closed = 1;
nodes = (
"314 0 LINE",
"314 555 LINE",
"419 555 LINE",
"419 670 LINE",
"139 670 LINE",
"35 585 LINE",
"35 0 LINE"
);
},
{
closed = 1;
nodes = (
"396 360 LINE",
"396 475 LINE",
"-5 475 LINE",
"-5 360 LINE"
);
}
);
width = 419;
}
);
leftKerningGroup = f;
rightKerningGroup = f;
unicode = 0066;
},
{
glyphname = g;
lastChange = "2019-01-02 21:31:45 +0000";
layers = (
{
anchors = (
{
name = top;
position = "{321, 475}";
}
);
components = (
{
name = _part.b;
transform = "{-1, 0, 0, 1, 625, 0}";
}
);
layerId = "209BF778-B46C-485B-99E1-60046645AA57";
paths = (
{
closed = 1;
nodes = (
"500 -170 LINE",
"625 -35 LINE",
"625 475 LINE",
"346 475 LINE",
"346 0 LINE",
"318 -30 LINE",
"57 -30 LINE",
"57 -170 LINE"
);
}
);
width = 655;
}
);
leftKerningGroup = o;
leftMetricsKey = o;
rightKerningGroup = g;
rightMetricsKey = d;
unicode = 0067;
},
{
glyphname = iogonek;
lastChange = "2019-04-10 20:37:03 +0000";
layers = (
{
anchors = (
{
name = _ogonek;
position = "{309, 0}";
}
);
components = (
{
name = idotless;
},
{
name = dotaccentcomb;
}
);
layerId = "209BF778-B46C-485B-99E1-60046645AA57";
paths = (
{
closed = 1;
nodes = (
"309 -180 LINE",
"309 -50 LINE",
"295 -50 LINE",
"283 -40 LINE",
"283 -21 LINE",
"309 0 LINE",
"185 0 LINE",
"143 -30 LINE",
"143 -115 LINE",
"223 -180 LINE"
);
}
);
width = 339;
}
);
rightMetricsKey = i;
unicode = 012F;
},
{
glyphname = j;
lastChange = "2019-01-02 21:31:45 +0000";
layers = (
{
anchors = (
{
name = top;
position = "{165, 475}";
}
);
components = (
{
name = dotaccentcomb;
transform = "{1, 0, 0, 1, -5, 0}";
}
);
layerId = "209BF778-B46C-485B-99E1-60046645AA57";
paths = (
{
closed = 1;
nodes = (
"200 -170 LINE",
"304 -85 LINE",
"304 475 LINE",
"25 475 LINE",
"25 -55 LINE",
"-50 -55 LINE",
"-50 -170 LINE"
);
}
);
width = 334;
}
);
leftKerningGroup = j;
rightKerningGroup = j;
rightMetricsKey = d;
unicode = 006A;
},
{
glyphname = jdotless;
lastChange = "2019-01-02 21:31:45 +0000";
layers = (
{
anchors = (
{
name = top;
position = "{165, 475}";
}
);
layerId = "209BF778-B46C-485B-99E1-60046645AA57";
paths = (
{
closed = 1;
nodes = (
"200 -170 LINE",
"304 -85 LINE",
"304 475 LINE",
"25 475 LINE",
"25 -55 LINE",
"-50 -55 LINE",
"-50 -170 LINE"
);
}
);
width = 334;
}
);
rightMetricsKey = d;
unicode = 0237;
},
{
glyphname = k;
lastChange = "2019-01-02 21:31:45 +0000";
layers = (
{
anchors = (
{
name = botton;
position = "{332, 0}";
}
);
components = (
{
name = _part.l;
}
);
layerId = "209BF778-B46C-485B-99E1-60046645AA57";
paths = (
{
closed = 1;
nodes = (
"352 230 LINE",
"352 0 LINE",
"631 0 LINE",
"631 236 LINE",
"517 331 LINE",
"358 331 LINE",
"260 270 LINE",
"260 173 LINE"
);
},
{
closed = 1;
nodes = (
"283 88 LINE",
"656 475 LINE",
"404 475 LINE",
"266 330 LINE",
"198 333 LINE",
"198 255 LINE"
);
}
);
width = 661;
}
);
leftKerningGroup = h;
leftMetricsKey = n;
rightKerningGroup = k;
unicode = 006B;
},
{
glyphname = kgreenlandic;
lastChange = "2019-01-02 21:31:45 +0000";
layers = (
{
anchors = (
{
name = botton;
position = "{332, 0}";
}
);
layerId = "209BF778-B46C-485B-99E1-60046645AA57";
paths = (
{
closed = 1;
nodes = (
"656 475 LINE",
"404 475 LINE",
"266 330 LINE",
"198 333 LINE",
"198 255 LINE",
"283 88 LINE"
);
},
{
closed = 1;
nodes = (
"310 0 LINE",
"310 475 LINE",
"30 475 LINE",
"30 0 LINE"
);
},
{
closed = 1;
nodes = (
"631 0 LINE",
"631 236 LINE",
"517 331 LINE",
"358 331 LINE",
"260 270 LINE",
"260 173 LINE",
"352 230 LINE",
"352 0 LINE"
);
}
);
width = 661;
}
);
leftMetricsKey = n;
unicode = 0138;
},
{
glyphname = lslash;
lastChange = "2019-01-02 21:31:45 +0000";
layers = (
{
components = (
{
name = l;
transform = "{1, 0, 0, 1, 50, 0}";
}
);
layerId = "209BF778-B46C-485B-99E1-60046645AA57";
paths = (
{
closed = 1;
nodes = (
"420 338 LINE",
"420 490 LINE",
"20 315 LINE",
"20 162 LINE"
);
}
);
width = 440;
}
);
leftKerningGroup = h;
unicode = 0142;
},
{
glyphname = eng;
lastChange = "2019-01-02 21:31:45 +0000";
layers = (
{
components = (
{
name = _part.i;
},
{
name = _part.n;
transform = "{1, 0, 0, 1, 319, 0}";
}
);
layerId = "209BF778-B46C-485B-99E1-60046645AA57";
paths = (
{
closed = 1;
nodes = (
"526 -170 LINE",
"630 -85 LINE",
"630 235 LINE",
"351 235 LINE",
"351 -55 LINE",
"276 -55 LINE",
"276 -170 LINE"
);
}
);
width = 658;
}
);
leftKerningGroup = n;
leftMetricsKey = n;
rightKerningGroup = n;
rightMetricsKey = n;
unicode = 014B;
},
{
glyphname = o;
lastChange = "2019-01-02 21:31:45 +0000";
layers = (
{
anchors = (
{
name = bottom;
position = "{325, 0}";
},
{
name = center;
position = "{325, 238}";
},
{
name = horn;
position = "{549, 393}";
},
{
name = ogonek;
position = "{521, 0}";
},
{
name = top;
position = "{325, 475}";
},
{
name = topright;
position = "{635, 475}";
}
);
hints = (
{
origin = "{0, 3}";
type = Corner;
name = _corner.dia_dir;
options = 1;
},
{
origin = "{0, 2}";
type = Corner;
name = _corner.dia_esq;
options = 1;
},
{
origin = "{0, 1}";
type = Corner;
name = _corner.dia_dir;
options = 1;
},
{
origin = "{0, 0}";
type = Corner;
name = _corner.dia_esq;
options = 1;
}
);
layerId = "209BF778-B46C-485B-99E1-60046645AA57";
paths = (
{
closed = 1;
nodes = (
"25 475 LINE",
"25 0 LINE",
"625 0 LINE",
"625 475 LINE"
);
},
{
closed = 1;
nodes = (
"304 390 LINE",
"346 390 LINE",
"346 85 LINE",
"304 85 LINE"
);
}
);
width = 650;
}
);
leftKerningGroup = o;
rightKerningGroup = o;
unicode = 006F;
},
{
glyphname = oslash;
lastChange = "2019-01-02 21:31:45 +0000";
layers = (
{
components = (
{
name = o;
}
);
layerId = "209BF778-B46C-485B-99E1-60046645AA57";
paths = (
{
closed = 1;
nodes = (
"458 413 LINE",
"400 445 LINE",
"192 62 LINE",
"250 30 LINE"
);
}
);
width = 650;
}
);
leftKerningGroup = o;
rightKerningGroup = o;
unicode = 00F8;
},
{
glyphname = oe;
lastChange = "2019-01-02 21:31:45 +0000";
layers = (
{
hints = (
{
origin = "{0, 0}";
type = Corner;
name = _corner.dia_esq;
options = 1;
},
{
origin = "{0, 1}";
type = Corner;
name = _corner.dia_dir;
options = 1;
},
{
origin = "{0, 2}";
type = Corner;
name = _corner.dia_esq;
options = 1;
},
{
origin = "{0, 3}";
type = Corner;
name = _corner.dia_dir;
options = 1;
},
{
origin = "{2, 7}";
type = Corner;
name = _corner.dia_dir;
options = 1;
},
{
origin = "{2, 8}";
type = Corner;
name = _corner.dia_esq;
options = 1;
},
{
origin = "{2, 9}";
type = Corner;
name = _corner.dia_dir;
options = 1;
}
);
layerId = "209BF778-B46C-485B-99E1-60046645AA57";
paths = (
{
closed = 1;
nodes = (
"25 475 LINE",
"25 0 LINE",
"625 0 LINE",
"625 475 LINE"
);
},
{
closed = 1;
nodes = (
"304 390 LINE",
"346 390 LINE",
"346 85 LINE",
"304 85 LINE"
);
},
{
closed = 1;
nodes = (
"901 0 LINE",
"901 147 LINE",
"625 147 LINE",
"625 390 LINE",
"667 390 LINE",
"667 189 LINE",
"906 189 LINE",
"906 475 LINE",
"346 475 LINE",
"346 0 LINE"
);
},
{
closed = 1;
nodes = (
"906 189 LINE",
"906 281 LINE",
"583 281 LINE",
"583 189 LINE"
);
}
);
width = 931;
}
);
leftKerningGroup = o;
leftMetricsKey = o;
rightKerningGroup = e;
rightMetricsKey = e;
unicode = 0153;
},
{
glyphname = thorn;
lastChange = "2019-01-02 21:31:45 +0000";
layers = (
{
components = (
{
name = _part.b;
transform = "{1, 0, 0, 1, 31, 0}";
}
);
layerId = "209BF778-B46C-485B-99E1-60046645AA57";
paths = (
{
closed = 1;
nodes = (
"310 -170 LINE",
"310 670 LINE",
"30 670 LINE",
"30 -170 LINE"
);
}
);
width = 656;
}
);
leftMetricsKey = p;
rightKerningGroup = o;
rightMetricsKey = p;
unicode = 00FE;
},
{
glyphname = r;
lastChange = "2019-01-02 21:31:45 +0000";
layers = (
{
anchors = (
{
name = botton;
position = "{170, 0}";
},
{
name = top;
position = "{240, 475}";
}
);
components = (
{
name = _part.i;
}
);
layerId = "209BF778-B46C-485B-99E1-60046645AA57";
paths = (
{
closed = 1;
nodes = (
"241 275 LINE",
"450 275 LINE",
"450 475 LINE",
"364 475 LINE",
"241 361 LINE",
"241 275 LINE"
);
}
);
width = 460;
}
);
leftKerningGroup = n;
leftMetricsKey = n;
rightKerningGroup = r;
unicode = 0072;
},
{
glyphname = s;
lastChange = "2019-01-02 21:31:45 +0000";
layers = (
{
anchors = (
{
name = botton;
position = "{283, 0}";
},
{
name = top;
position = "{298, 475}";
}
);
layerId = "209BF778-B46C-485B-99E1-60046645AA57";
paths = (
{
closed = 1;
nodes = (
"476 0 LINE",
"580 85 LINE",
"580 210 LINE",
"476 295 LINE",
"310 295 LINE",
"310 295 LINE",
"310 337 LINE",
"310 337 LINE",
"544 337 LINE",
"544 475 LINE",
"124 475 LINE",
"20 390 LINE",
"20 265 LINE",
"124 180 LINE",
"310 180 LINE",
"310 180 LINE",
"310 138 LINE",
"310 138 LINE",
"40 139 LINE",
"40 0 LINE"
);
}
);
width = 600;
}
);
leftKerningGroup = o;
rightKerningGroup = o;
unicode = 0073;
},
{
glyphname = germandbls;
lastChange = "2019-01-02 21:31:45 +0000";
layers = (
{
layerId = "209BF778-B46C-485B-99E1-60046645AA57";
paths = (
{
closed = 1;
nodes = (
"350 0 LINE",
"350 545 LINE",
"350 545 LINE",
"402 545 LINE",
"402 545 LINE",
"402 436 LINE",
"402 387 LINE",
"567 330 LINE",
"673 417 LINE",
"673 585 LINE",
"569 670 LINE",
"134 670 LINE",
"30 585 LINE",
"30 0 LINE"
);
},
{
closed = 1;
nodes = (
"628 0 LINE",
"732 85 LINE",
"732 255 LINE",
"551 403 LINE",
"376 403 LINE",
"376 278 LINE",
"402 278 LINE",
"401 284 LINE",
"402 125 LINE",
"376 125 LINE",
"376 125 LINE",
"376 0 LINE"
);
}
);
width = 762;
}
);
leftMetricsKey = H;
rightMetricsKey = B;
unicode = 00DF;
},
{
glyphname = t;
lastChange = "2019-01-02 21:31:45 +0000";
layers = (
{
anchors = (
{
name = botton;
position = "{248, 0}";
},
{
name = top;
position = "{522, 525}";
}
);
layerId = "209BF778-B46C-485B-99E1-60046645AA57";
paths = (
{
closed = 1;
nodes = (
"390 0 LINE",
"390 115 LINE",
"314 115 LINE",
"314 644 LINE",
"141 644 LINE",
"35 470 LINE",
"35 85 LINE",
"139 0 LINE"
);
},
{
closed = 1;
nodes = (
"376 360 LINE",
"376 475 LINE",
"10 475 LINE",
"10 360 LINE"
);
}
);
width = 400;
}
);
leftKerningGroup = t;
rightKerningGroup = t;
unicode = 0074;
},
{
glyphname = tbar;
lastChange = "2019-01-02 21:31:45 +0000";
layers = (
{
components = (
{
name = t;
}
);
layerId = "209BF778-B46C-485B-99E1-60046645AA57";
paths = (
{
closed = 1;
nodes = (
"376 214 LINE",
"376 319 LINE",
"10 319 LINE",
"10 214 LINE"
);
}
);
width = 400;
}
);
leftMetricsKey = t;
rightMetricsKey = t;
unicode = 0167;
},
{
glyphname = u;
lastChange = "2019-01-02 21:31:45 +0000";
layers = (
{
anchors = (
{
name = bottom;
position = "{323, 0}";
},
{
name = horn;
position = "{609, 393}";
},
{
name = ogonek;
position = "{628, 0}";
},
{
name = top;
position = "{328, 475}";
},
{
name = topright;
position = "{638, 475}";
}
);
components = (
{
name = _part.i;
transform = "{-1, 0, 0, -1, 658, 475}";
}
);
hints = (
{
origin = "{0, 5}";
type = Corner;
name = _corner.dia_dir;
options = 1;
}
);
layerId = "209BF778-B46C-485B-99E1-60046645AA57";
paths = (
{
closed = 1;
nodes = (
"307 89 LINE",
"307 89 LINE",
"307 89 LINE",
"307 475 LINE",
"28 475 LINE",
"28 0 LINE",
"301 0 LINE",
"399 61 LINE",
"399 146 LINE"
);
}
);
width = 658;
}
);
leftKerningGroup = u;
rightKerningGroup = u;
rightMetricsKey = d;
unicode = 0075;
},
{
glyphname = uogonek;
lastChange = "2019-04-10 20:37:17 +0000";
layers = (
{
anchors = (
{
name = _ogonek;
position = "{628, 0}";
}
);
components = (
{
name = u;
}
);
layerId = "209BF778-B46C-485B-99E1-60046645AA57";
paths = (
{
closed = 1;
nodes = (
"628 -180 LINE",
"628 -50 LINE",
"614 -50 LINE",
"602 -40 LINE",
"602 -21 LINE",
"628 0 LINE",
"504 0 LINE",
"462 -30 LINE",
"462 -115 LINE",
"542 -180 LINE"
);
}
);
width = 658;
}
);
leftKerningGroup = u;
leftMetricsKey = u;
rightKerningGroup = u;
rightMetricsKey = u;
unicode = 0173;
},
{
glyphname = v;
lastChange = "2019-01-02 21:31:45 +0000";
layers = (
{
layerId = "209BF778-B46C-485B-99E1-60046645AA57";
paths = (
{
closed = 1;
nodes = (
"534 0 LINE",
"668 230 LINE",
"668 475 LINE",
"365 475 LINE",
"365 85 LINE",
"323 85 LINE",
"323 475 LINE",
"20 475 LINE",
"20 230 LINE",
"154 0 LINE"
);
}
);
width = 688;
}
);
leftKerningGroup = v;
rightKerningGroup = v;
unicode = 0076;
},
{
glyphname = w;
lastChange = "2019-01-02 21:31:45 +0000";
layers = (
{
anchors = (
{
name = bottom;
position = "{502, 0}";
},
{
name = top;
position = "{502, 475}";
}
);
layerId = "209BF778-B46C-485B-99E1-60046645AA57";
paths = (
{
closed = 1;
nodes = (
"450 0 LINE",
"502 72 LINE",
"554 0 LINE",
"849 0 LINE",
"983 230 LINE",
"983 475 LINE",
"680 475 LINE",
"680 85 LINE",
"638 85 LINE",
"638 475 LINE",
"365 475 LINE",
"365 85 LINE",
"323 85 LINE",
"323 475 LINE",
"20 475 LINE",
"20 230 LINE",
"154 0 LINE"
);
}
);
width = 1003;
}
);
leftKerningGroup = w;
leftMetricsKey = v;
rightKerningGroup = w;
rightMetricsKey = v;
unicode = 0077;
},
{
glyphname = x;
lastChange = "2019-01-02 21:31:45 +0000";
layers = (
{
layerId = "209BF778-B46C-485B-99E1-60046645AA57";
paths = (
{
closed = 1;
nodes = (
"323 0 LINE",
"323 215 LINE",
"365 215 LINE",
"365 0 LINE",
"668 0 LINE",
"668 184 LINE",
"549 288 LINE",
"549 229 LINE",
"668 331 LINE",
"668 475 LINE",
"365 475 LINE",
"365 300 LINE",
"323 300 LINE",
"323 475 LINE",
"20 475 LINE",
"20 331 LINE",
"139 229 LINE",
"139 288 LINE",
"20 184 LINE",
"20 0 LINE"
);
}
);
width = 688;
}
);
leftKerningGroup = x;
leftMetricsKey = v;
rightKerningGroup = x;
rightMetricsKey = v;
unicode = 0078;
},
{
glyphname = y;
lastChange = "2019-01-02 21:31:45 +0000";
layers = (
{
anchors = (
{
name = bottom;
position = "{328, -170}";
},
{
name = top;
position = "{328, 475}";
}
);
layerId = "209BF778-B46C-485B-99E1-60046645AA57";
paths = (
{
closed = 1;
nodes = (
"503 -170 LINE",
"628 -35 LINE",
"628 475 LINE",
"349 475 LINE",
"349 107 LINE",
"349 107 LINE",
"307 81 LINE",
"307 81 LINE",
"307 475 LINE",
"28 475 LINE",
"28 85 LINE",
"132 0 LINE",
"301 0 LINE",
"349 30 LINE",
"349 -8 LINE",
"321 -30 LINE",
"50 -30 LINE",
"50 -170 LINE"
);
}
);
width = 658;
}
);
leftKerningGroup = u;
rightKerningGroup = v;
unicode = 0079;
},
{
glyphname = z;
lastChange = "2019-01-02 21:31:45 +0000";
layers = (
{
anchors = (
{
name = top;
position = "{301, 475}";
}
);
layerId = "209BF778-B46C-485B-99E1-60046645AA57";
paths = (
{
closed = 1;
nodes = (
"562 0 LINE",
"562 135 LINE",
"264 135 LINE",
"276 65 LINE",
"552 332 LINE",
"552 475 LINE",
"44 475 LINE",
"44 340 LINE",
"303 340 LINE",
"301 411 LINE",
"20 136 LINE",
"20 0 LINE"
);
}
);
width = 582;
}
);
leftKerningGroup = z;
rightKerningGroup = z;
unicode = 007A;
},
{
glyphname = f_f;
lastChange = "2019-02-10 13:18:00 +0000";
layers = (
{
components = (
{
name = f;
}
);
layerId = "209BF778-B46C-485B-99E1-60046645AA57";
paths = (
{
closed = 1;
nodes = (
"733 0 LINE",
"733 555 LINE",
"838 555 LINE",
"838 670 LINE",
"558 670 LINE",
"454 585 LINE",
"454 0 LINE"
);
},
{
closed = 1;
nodes = (
"815 360 LINE",
"815 475 LINE",
"384 475 LINE",
"384 360 LINE"
);
}
);
width = 838;
}
);
leftMetricsKey = f;
rightMetricsKey = f;
},
{
glyphname = f_f_i;
lastChange = "2019-02-10 13:29:19 +0000";
layers = (
{
components = (
{
name = f;
},
{
name = _part.i;
transform = "{1, 0, 0, 1, 838, 0}";
}
);
layerId = "209BF778-B46C-485B-99E1-60046645AA57";
paths = (
{
closed = 1;
nodes = (
"815 360 LINE",
"815 475 LINE",
"384 475 LINE",
"384 360 LINE"
);
},
{
closed = 1;
nodes = (
"733 0 LINE",
"733 555 LINE",
"1002 555 LINE",
"1002 670 LINE",
"558 670 LINE",
"454 585 LINE",
"454 0 LINE"
);
}
);
width = 1177;
}
);
leftMetricsKey = f;
rightMetricsKey = i;
},
{
glyphname = fi;
lastChange = "2019-02-10 13:27:24 +0000";
layers = (
{
components = (
{
name = _part.i;
transform = "{1, 0, 0, 1, 419, 0}";
}
);
layerId = "209BF778-B46C-485B-99E1-60046645AA57";
paths = (
{
closed = 1;
nodes = (
"314 0 LINE",
"314 555 LINE",
"583 555 LINE",
"583 670 LINE",
"139 670 LINE",
"35 585 LINE",
"35 0 LINE"
);
},
{
closed = 1;
nodes = (
"396 360 LINE",
"396 475 LINE",
"-5 475 LINE",
"-5 360 LINE"
);
}
);
width = 758;
}
);
leftMetricsKey = f;
rightMetricsKey = i;
unicode = FB01;
},
{
glyphname = ordfeminine;
lastChange = "2019-01-02 21:31:45 +0000";
layers = (
{
layerId = "209BF778-B46C-485B-99E1-60046645AA57";
paths = (
{
closed = 1;
nodes = (
"230 285 LINE",
"278 329 LINE",
"278 285 LINE",
"513 285 LINE",
"513 569 LINE",
"414 670 LINE",
"79 670 LINE",
"79 580 LINE",
"278 580 LINE",
"278 580 LINE",
"278 538 LINE",
"105 538 LINE",
"30 460 LINE",
"30 365 LINE",
"109 285 LINE"
);
},
{
closed = 1;
nodes = (
"236 357 LINE",
"236 487 LINE",
"278 487 LINE",
"278 487 LINE",
"278 396 LINE",
"278 396 LINE",
"236 357 LINE"
);
}
);
width = 543;
}
);
unicode = 00AA;
},
{
glyphname = ordmasculine;
lastChange = "2019-01-02 21:31:45 +0000";
layers = (
{
layerId = "209BF778-B46C-485B-99E1-60046645AA57";
paths = (
{
closed = 1;
nodes = (
"446 285 LINE",
"530 371 LINE",
"530 584 LINE",
"446 670 LINE",
"114 670 LINE",
"30 584 LINE",
"30 371 LINE",
"114 285 LINE"
);
},
{
closed = 1;
nodes = (
"259 370 LINE",
"259 585 LINE",
"259 585 LINE",
"301 585 LINE",
"301 585 LINE",
"301 370 LINE",
"301 370 LINE",
"259 370 LINE"
);
}
);
width = 560;
}
);
unicode = 00BA;
},
{
glyphname = zero;
lastChange = "2019-01-02 21:31:45 +0000";
layers = (
{
hints = (
{
origin = "{0, 2}";
type = Corner;
name = _corner.dia_esq;
options = 1;
},
{
origin = "{0, 0}";
type = Corner;
name = _corner.dia_esq;
options = 1;
},
{
origin = "{0, 1}";
type = Corner;
name = _corner.dia_dir;
options = 1;
},
{
origin = "{0, 3}";
type = Corner;
name = _corner.dia_dir;
options = 1;
}
);
layerId = "209BF778-B46C-485B-99E1-60046645AA57";
paths = (
{
closed = 1;
nodes = (
"742 0 LINE",
"742 671 LINE",
"30 671 LINE",
"30 0 LINE"
);
},
{
closed = 1;
nodes = (
"360 546 LINE",
"412 546 LINE",
"412 125 LINE",
"360 125 LINE"
);
}
);
width = 772;
}
);
leftKerningGroup = zero;
leftMetricsKey = O;
rightKerningGroup = zero;
rightMetricsKey = O;
unicode = 0030;
},
{
glyphname = one;
lastChange = "2019-02-09 17:08:26 +0000";
layers = (
{
layerId = "209BF778-B46C-485B-99E1-60046645AA57";
paths = (
{
closed = 1;
nodes = (
"536 0 LINE",
"536 215 LINE",
"30 215 LINE",
"30 0 LINE"
);
},
{
closed = 1;
nodes = (
"362 455 LINE",
"362 670 LINE",
"30 670 LINE",
"30 455 LINE"
);
},
{
closed = 1;
nodes = (
"441 0 LINE",
"441 670 LINE",
"125 670 LINE",
"125 0 LINE"
);
}
);
width = 556;
}
);
leftKerningGroup = one;
rightKerningGroup = one;
unicode = 0031;
},
{
glyphname = two;
lastChange = "2019-01-02 21:31:45 +0000";
layers = (
{
hints = (
{
origin = "{0, 4}";
type = Corner;
name = _corner.dia_dir;
options = 1;
}
);
layerId = "209BF778-B46C-485B-99E1-60046645AA57";
paths = (
{
closed = 1;
nodes = (
"707 0 LINE",
"707 215 LINE",
"435 215 LINE",
"702 377 LINE",
"702 670 LINE",
"134 670 LINE",
"30 585 LINE",
"30 422 LINE",
"340 422 LINE",
"340 545 LINE",
"392 545 LINE",
"392 437 LINE",
"34 185 LINE",
"34 0 LINE"
);
}
);
width = 747;
}
);
leftKerningGroup = two;
rightKerningGroup = two;
unicode = 0032;
},
{
glyphname = three;
lastChange = "2019-02-10 12:31:28 +0000";
layers = (
{
hints = (
{
origin = "{0, 4}";
type = Corner;
name = _corner.dia_dir;
options = 1;
},
{
origin = "{0, 0}";
type = Corner;
name = _corner.dia_esq;
options = 1;
}
);
layerId = "209BF778-B46C-485B-99E1-60046645AA57";
paths = (
{
closed = 1;
nodes = (
"722 0 LINE",
"722 257 LINE",
"641 337 LINE",
"722 418 LINE",
"722 670 LINE",
"144 670 LINE",
"40 585 LINE",
"40 457 LINE",
"190 457 LINE",
"350 457 LINE",
"350 545 LINE",
"402 545 LINE",
"402 415 LINE",
"232 415 LINE",
"232 257 LINE",
"402 257 LINE",
"402 125 LINE",
"350 125 LINE",
"350 215 LINE",
"190 215 LINE",
"30 215 LINE",
"30 85 LINE",
"134 0 LINE"
);
}
);
width = 752;
}
);
leftKerningGroup = three;
leftMetricsKey = five;
rightKerningGroup = three;
rightMetricsKey = O;
unicode = 0033;
},
{
glyphname = four;
lastChange = "2019-02-10 16:39:47 +0000";
layers = (
{
background = {
paths = (
{
closed = 1;
nodes = (
"697 0 LINE",
"697 70 LINE",
"770 70 LINE",
"770 243 LINE",
"697 243 LINE",
"697 670 LINE",
"384 670 LINE",
"10 243 LINE",
"10 70 LINE",
"388 70 LINE",
"388 0 LINE"
);
},
{
closed = 1;
nodes = (
"388 396 LINE",
"388 243 LINE",
"273 243 LINE"
);
}
);
};
layerId = "209BF778-B46C-485B-99E1-60046645AA57";
paths = (
{
closed = 1;
nodes = (
"697 0 LINE",
"697 70 LINE",
"770 70 LINE",
"770 243 LINE",
"697 243 LINE",
"697 670 LINE",
"384 670 LINE",
"10 243 LINE",
"10 70 LINE",
"388 70 LINE",
"388 0 LINE"
);
},
{
closed = 1;
nodes = (
"388 396 LINE",
"388 243 LINE",
"273 243 LINE"
);
}
);
width = 790;
}
);
leftKerningGroup = four;
rightKerningGroup = four;
unicode = 0034;
},
{
glyphname = five;
lastChange = "2019-01-02 21:31:45 +0000";
layers = (
{
layerId = "209BF778-B46C-485B-99E1-60046645AA57";
paths = (
{
closed = 1;
nodes = (
"350 423 LINE",
"350 475 LINE",
"688 475 LINE",
"688 670 LINE",
"43 670 LINE",
"43 269 LINE",
"402 269 LINE",
"402 125 LINE",
"350 125 LINE",
"350 217 LINE",
"30 217 LINE",
"30 85 LINE",
"134 0 LINE",
"608 0 LINE",
"712 85 LINE",
"712 338 LINE",
"608 423 LINE"
);
}
);
width = 742;
}
);
leftKerningGroup = five;
rightKerningGroup = five;
rightMetricsKey = O;
unicode = 0035;
},
{
glyphname = six;
lastChange = "2019-01-02 21:31:45 +0000";
layers = (
{
layerId = "209BF778-B46C-485B-99E1-60046645AA57";
paths = (
{
closed = 1;
nodes = (
"618 0 LINE",
"722 85 LINE",
"722 327 LINE",
"618 412 LINE",
"350 412 LINE",
"350 545 LINE",
"402 545 LINE",
"402 457 LINE",
"712 457 LINE",
"712 585 LINE",
"608 670 LINE",
"134 670 LINE",
"30 585 LINE",
"30 85 LINE",
"134 0 LINE"
);
},
{
closed = 1;
nodes = (
"350 280 LINE",
"402 280 LINE",
"402 125 LINE",
"350 125 LINE"
);
}
);
width = 752;
}
);
leftKerningGroup = six;
leftMetricsKey = O;
rightKerningGroup = six;
unicode = 0036;
},
{
glyphname = seven;
lastChange = "2019-01-02 21:31:45 +0000";
layers = (
{
layerId = "209BF778-B46C-485B-99E1-60046645AA57";
paths = (
{
closed = 1;
nodes = (
"370 0 LINE",
"671 475 LINE",
"671 670 LINE",
"10 670 LINE",
"10 475 LINE",
"312 475 LINE",
"11 0 LINE"
);
}
);
width = 681;
}
);
leftKerningGroup = seven;
rightKerningGroup = seven;
unicode = 0037;
},
{
glyphname = eight;
lastChange = "2019-01-02 21:31:45 +0000";
layers = (
{
layerId = "209BF778-B46C-485B-99E1-60046645AA57";
paths = (
{
closed = 1;
nodes = (
"638 0 LINE",
"742 85 LINE",
"742 261 LINE",
"638 346 LINE",
"732 423 LINE",
"732 585 LINE",
"628 670 LINE",
"144 670 LINE",
"40 585 LINE",
"40 423 LINE",
"134 346 LINE",
"30 261 LINE",
"30 85 LINE",
"134 0 LINE"
);
},
{
closed = 1;
nodes = (
"360 284 LINE",
"412 284 LINE",
"412 125 LINE",
"360 125 LINE"
);
},
{
closed = 1;
nodes = (
"360 545 LINE",
"412 545 LINE",
"412 409 LINE",
"360 409 LINE"
);
}
);
width = 772;
}
);
leftKerningGroup = eight;
rightKerningGroup = eight;
unicode = 0038;
},
{
glyphname = nine;
lastChange = "2019-01-02 21:31:45 +0000";
layers = (
{
layerId = "209BF778-B46C-485B-99E1-60046645AA57";
paths = (
{
closed = 1;
nodes = (
"618 0 LINE",
"722 85 LINE",
"722 585 LINE",
"618 670 LINE",
"134 670 LINE",
"30 585 LINE",
"30 343 LINE",
"134 258 LINE",
"402 258 LINE",
"402 125 LINE",
"350 125 LINE",
"350 213 LINE",
"40 213 LINE",
"40 85 LINE",
"144 0 LINE"
);
},
{
closed = 1;
nodes = (
"350 545 LINE",
"402 545 LINE",
"402 390 LINE",
"350 390 LINE"
);
}
);
width = 752;
}
);
leftKerningGroup = nine;
rightKerningGroup = nine;
rightMetricsKey = O;
unicode = 0039;
},
{
glyphname = zero.lf;
lastChange = "2019-01-02 21:31:45 +0000";
layers = (
{
hints = (
{
origin = "{0, 0}";
type = Corner;
name = _corner.dia_esq;
options = 1;
},
{
origin = "{0, 1}";
type = Corner;
name = _corner.dia_dir;
options = 1;
},
{
origin = "{0, 2}";
type = Corner;
name = _corner.dia_esq;
options = 1;
},
{
origin = "{0, 3}";
type = Corner;
name = _corner.dia_dir;
options = 1;
}
);
layerId = "209BF778-B46C-485B-99E1-60046645AA57";
paths = (
{
closed = 1;
nodes = (
"742 0 LINE",
"742 671 LINE",
"30 671 LINE",
"30 0 LINE"
);
},
{
closed = 1;
nodes = (
"360 546 LINE",
"412 546 LINE",
"412 125 LINE",
"360 125 LINE"
);
}
);
width = 772;
}
);
leftMetricsKey = O;
rightMetricsKey = O;
},
{
glyphname = one.lf;
lastChange = "2019-01-02 21:31:45 +0000";
layers = (
{
layerId = "209BF778-B46C-485B-99E1-60046645AA57";
paths = (
{
closed = 1;
nodes = (
"536 0 LINE",
"536 215 LINE",
"30 215 LINE",
"30 0 LINE"
);
},
{
closed = 1;
nodes = (
"362 455 LINE",
"362 670 LINE",
"30 670 LINE",
"30 455 LINE"
);
},
{
closed = 1;
nodes = (
"441 0 LINE",
"441 670 LINE",
"125 670 LINE",
"125 0 LINE"
);
}
);
width = 556;
}
);
},
{
glyphname = two.lf;
lastChange = "2019-01-02 21:31:45 +0000";
layers = (
{
hints = (
{
origin = "{0, 4}";
type = Corner;
name = _corner.dia_dir;
options = 1;
}
);
layerId = "209BF778-B46C-485B-99E1-60046645AA57";
paths = (
{
closed = 1;
nodes = (
"707 0 LINE",
"707 215 LINE",
"435 215 LINE",
"702 377 LINE",
"702 670 LINE",
"134 670 LINE",
"30 585 LINE",
"30 422 LINE",
"340 422 LINE",
"340 545 LINE",
"392 545 LINE",
"392 437 LINE",
"34 185 LINE",
"34 0 LINE"
);
}
);
width = 747;
}
);
},
{
glyphname = three.lf;
lastChange = "2019-01-02 21:31:45 +0000";
layers = (
{
hints = (
{
origin = "{0, 0}";
type = Corner;
name = _corner.dia_esq;
options = 1;
},
{
origin = "{0, 4}";
type = Corner;
name = _corner.dia_dir;
options = 1;
}
);
layerId = "209BF778-B46C-485B-99E1-60046645AA57";
paths = (
{
closed = 1;
nodes = (
"722 0 LINE",
"722 257 LINE",
"641 337 LINE",
"722 418 LINE",
"722 670 LINE",
"144 670 LINE",
"40 585 LINE",
"40 457 LINE",
"190 457 LINE",
"350 457 LINE",
"350 545 LINE",
"402 545 LINE",
"402 415 LINE",
"232 415 LINE",
"232 257 LINE",
"402 257 LINE",
"402 125 LINE",
"350 125 LINE",
"350 215 LINE",
"190 215 LINE",
"30 215 LINE",
"30 85 LINE",
"134 0 LINE"
);
}
);
width = 752;
}
);
leftMetricsKey = five;
rightMetricsKey = O;
},
{
glyphname = four.lf;
lastChange = "2019-01-02 21:31:45 +0000";
layers = (
{
layerId = "209BF778-B46C-485B-99E1-60046645AA57";
paths = (
{
closed = 1;
nodes = (
"697 0 LINE",
"697 70 LINE",
"770 70 LINE",
"770 243 LINE",
"697 243 LINE",
"697 670 LINE",
"384 670 LINE",
"10 243 LINE",
"10 70 LINE",
"388 70 LINE",
"388 0 LINE"
);
},
{
closed = 1;
nodes = (
"388 396 LINE",
"388 243 LINE",
"273 243 LINE"
);
}
);
width = 790;
}
);
},
{
glyphname = five.lf;
lastChange = "2019-01-02 21:31:45 +0000";
layers = (
{
layerId = "209BF778-B46C-485B-99E1-60046645AA57";
paths = (
{
closed = 1;
nodes = (
"350 423 LINE",
"350 475 LINE",
"688 475 LINE",
"688 670 LINE",
"43 670 LINE",
"43 269 LINE",
"402 269 LINE",
"402 125 LINE",
"350 125 LINE",
"350 217 LINE",
"30 217 LINE",
"30 85 LINE",
"134 0 LINE",
"608 0 LINE",
"712 85 LINE",
"712 338 LINE",
"608 423 LINE"
);
}
);
width = 742;
}
);
rightMetricsKey = O;
},
{
glyphname = six.lf;
lastChange = "2019-01-02 21:31:45 +0000";
layers = (
{
layerId = "209BF778-B46C-485B-99E1-60046645AA57";
paths = (
{
closed = 1;
nodes = (
"618 0 LINE",
"722 85 LINE",
"722 327 LINE",
"618 412 LINE",
"350 412 LINE",
"350 545 LINE",
"402 545 LINE",
"402 457 LINE",
"712 457 LINE",
"712 585 LINE",
"608 670 LINE",
"134 670 LINE",
"30 585 LINE",
"30 85 LINE",
"134 0 LINE"
);
},
{
closed = 1;
nodes = (
"350 280 LINE",
"402 280 LINE",
"402 125 LINE",
"350 125 LINE"
);
}
);
width = 752;
}
);
leftMetricsKey = O;
},
{
glyphname = seven.lf;
lastChange = "2019-01-02 21:31:45 +0000";
layers = (
{
layerId = "209BF778-B46C-485B-99E1-60046645AA57";
paths = (
{
closed = 1;
nodes = (
"370 0 LINE",
"671 475 LINE",
"671 670 LINE",
"10 670 LINE",
"10 475 LINE",
"312 475 LINE",
"11 0 LINE"
);
}
);
width = 681;
}
);
},
{
glyphname = eight.lf;
lastChange = "2019-01-02 21:31:45 +0000";
layers = (
{
layerId = "209BF778-B46C-485B-99E1-60046645AA57";
paths = (
{
closed = 1;
nodes = (
"638 0 LINE",
"742 85 LINE",
"742 261 LINE",
"638 346 LINE",
"732 423 LINE",
"732 585 LINE",
"628 670 LINE",
"144 670 LINE",
"40 585 LINE",
"40 423 LINE",
"134 346 LINE",
"30 261 LINE",
"30 85 LINE",
"134 0 LINE"
);
},
{
closed = 1;
nodes = (
"360 284 LINE",
"412 284 LINE",
"412 125 LINE",
"360 125 LINE"
);
},
{
closed = 1;
nodes = (
"360 545 LINE",
"412 545 LINE",
"412 409 LINE",
"360 409 LINE"
);
}
);
width = 772;
}
);
},
{
glyphname = nine.lf;
lastChange = "2019-02-09 17:24:05 +0000";
layers = (
{
layerId = "209BF778-B46C-485B-99E1-60046645AA57";
paths = (
{
closed = 1;
nodes = (
"618 0 LINE",
"722 85 LINE",
"722 585 LINE",
"618 670 LINE",
"134 670 LINE",
"30 585 LINE",
"30 343 LINE",
"134 258 LINE",
"402 258 LINE",
"402 125 LINE",
"350 125 LINE",
"350 213 LINE",
"40 213 LINE",
"40 85 LINE",
"144 0 LINE"
);
},
{
closed = 1;
nodes = (
"350 545 LINE",
"402 545 LINE",
"402 390 LINE",
"350 390 LINE"
);
}
);
width = 752;
}
);
rightMetricsKey = O;
},
{
glyphname = onesuperior;
lastChange = "2019-02-10 12:55:41 +0000";
layers = (
{
layerId = "209BF778-B46C-485B-99E1-60046645AA57";
paths = (
{
closed = 1;
nodes = (
"283 335 LINE",
"283 443 LINE",
"30 443 LINE",
"30 335 LINE"
);
},
{
closed = 1;
nodes = (
"196 563 LINE",
"196 670 LINE",
"30 670 LINE",
"30 563 LINE"
);
},
{
closed = 1;
nodes = (
"236 335 LINE",
"236 670 LINE",
"78 670 LINE",
"78 335 LINE"
);
}
);
width = 303;
}
);
leftMetricsKey = one;
rightMetricsKey = one;
unicode = 00B9;
},
{
glyphname = twosuperior;
lastChange = "2019-02-10 12:55:41 +0000";
layers = (
{
layerId = "209BF778-B46C-485B-99E1-60046645AA57";
paths = (
{
closed = 1;
nodes = (
"368 335 LINE",
"368 443 LINE",
"232 443 LINE",
"366 524 LINE",
"366 628 LINE",
"314 670 LINE",
"82 670 LINE",
"30 628 LINE",
"30 546 LINE",
"185 546 LINE",
"185 608 LINE",
"211 608 LINE",
"211 554 LINE",
"32 428 LINE",
"32 335 LINE"
);
}
);
width = 408;
}
);
leftMetricsKey = two;
rightMetricsKey = two;
unicode = 00B2;
},
{
glyphname = threesuperior;
lastChange = "2019-02-10 12:55:41 +0000";
layers = (
{
layerId = "209BF778-B46C-485B-99E1-60046645AA57";
paths = (
{
closed = 1;
nodes = (
"324 335 LINE",
"376 378 LINE",
"376 464 LINE",
"336 504 LINE",
"376 544 LINE",
"376 628 LINE",
"324 670 LINE",
"87 670 LINE",
"35 628 LINE",
"35 564 LINE",
"110 564 LINE",
"190 564 LINE",
"190 608 LINE",
"216 608 LINE",
"216 543 LINE",
"131 543 LINE",
"131 464 LINE",
"216 464 LINE",
"216 398 LINE",
"190 398 LINE",
"190 443 LINE",
"110 443 LINE",
"30 443 LINE",
"30 378 LINE",
"82 335 LINE"
);
}
);
width = 406;
}
);
leftMetricsKey = three;
rightMetricsKey = three;
unicode = 00B3;
},
{
glyphname = foursuperior;
lastChange = "2019-02-10 12:55:41 +0000";
layers = (
{
layerId = "209BF778-B46C-485B-99E1-60046645AA57";
paths = (
{
closed = 1;
nodes = (
"354 335 LINE",
"354 370 LINE",
"390 370 LINE",
"390 457 LINE",
"354 457 LINE",
"354 670 LINE",
"197 670 LINE",
"10 457 LINE",
"10 370 LINE",
"199 370 LINE",
"199 335 LINE"
);
},
{
closed = 1;
nodes = (
"199 533 LINE",
"199 457 LINE",
"142 457 LINE"
);
}
);
width = 410;
}
);
leftMetricsKey = four;
rightMetricsKey = four;
unicode = 2074;
},
{
glyphname = period;
lastChange = "2019-01-02 21:31:45 +0000";
layers = (
{
layerId = "209BF778-B46C-485B-99E1-60046645AA57";
paths = (
{
closed = 1;
nodes = (
"284 0 LINE",
"284 197 LINE",
"50 197 LINE",
"50 0 LINE"
);
}
);
width = 344;
}
);
leftKerningGroup = period;
rightKerningGroup = period;
unicode = 002E;
},
{
glyphname = comma;
lastChange = "2019-04-10 22:04:34 +0000";
layers = (
{
layerId = "209BF778-B46C-485B-99E1-60046645AA57";
paths = (
{
closed = 1;
nodes = (
"225 -100 LINE",
"363 197 LINE",
"111 197 LINE",
"60 -100 LINE"
);
}
);
width = 423;
}
);
leftKerningGroup = period;
rightKerningGroup = period;
unicode = 002C;
},
{
glyphname = semicolon;
lastChange = "2019-01-02 21:31:45 +0000";
layers = (
{
components = (
{
name = period;
transform = "{1, 0, 0, 1, 79, 278}";
}
);
layerId = "209BF778-B46C-485B-99E1-60046645AA57";
paths = (
{
closed = 1;
nodes = (
"225 -100 LINE",
"363 197 LINE",
"129 197 LINE",
"80 -100 LINE"
);
}
);
width = 423;
}
);
leftKerningGroup = colon;
rightKerningGroup = colon;
unicode = 003B;
},
{
glyphname = exclam;
lastChange = "2019-01-02 21:31:45 +0000";
layers = (
{
components = (
{
name = period;
transform = "{1, 0, 0, 1, 18, 0}";
}
);
layerId = "209BF778-B46C-485B-99E1-60046645AA57";
paths = (
{
closed = 1;
nodes = (
"302 236 LINE",
"340 670 LINE",
"30 670 LINE",
"68 236 LINE"
);
}
);
width = 370;
}
);
leftKerningGroup = exclam;
leftMetricsKey = n;
rightKerningGroup = exclam;
rightMetricsKey = d;
unicode = 0021;
},
{
glyphname = question;
lastChange = "2019-01-02 21:31:45 +0000";
layers = (
{
components = (
{
name = period;
transform = "{1, 0, 0, 1, 149, 0}";
}
);
layerId = "209BF778-B46C-485B-99E1-60046645AA57";
paths = (
{
closed = 1;
nodes = (
"433 236 LINE",
"433 298 LINE",
"529 298 LINE",
"612 381 LINE",
"612 585 LINE",
"508 670 LINE",
"134 670 LINE",
"30 585 LINE",
"30 457 LINE",
"290 457 LINE",
"290 545 LINE",
"342 545 LINE",
"342 425 LINE",
"266 425 LINE",
"199 358 LINE",
"199 236 LINE"
);
}
);
width = 652;
}
);
leftKerningGroup = question;
rightKerningGroup = question;
unicode = 003F;
},
{
glyphname = bullet;
lastChange = "2019-01-02 21:31:45 +0000";
layers = (
{
layerId = "209BF778-B46C-485B-99E1-60046645AA57";
paths = (
{
closed = 1;
nodes = (
"280 161 LINE",
"377 259 LINE",
"377 411 LINE",
"280 509 LINE",
"127 509 LINE",
"30 411 LINE",
"30 259 LINE",
"127 161 LINE"
);
}
);
width = 437;
}
);
leftKerningGroup = bullet;
leftMetricsKey = n;
rightKerningGroup = bullet;
unicode = 2022;
},
{
glyphname = asterisk;
lastChange = "2019-01-02 21:31:45 +0000";
layers = (
{
layerId = "209BF778-B46C-485B-99E1-60046645AA57";
paths = (
{
closed = 1;
nodes = (
"215 393 LINE",
"260 317 LINE",
"372 400 LINE",
"315 465 LINE",
"400 485 LINE",
"357 617 LINE",
"277 583 LINE",
"285 670 LINE",
"145 670 LINE",
"153 583 LINE",
"73 617 LINE",
"30 485 LINE",
"115 465 LINE",
"58 400 LINE",
"170 317 LINE"
);
}
);
width = 430;
}
);
leftKerningGroup = asterisk;
rightKerningGroup = asterisk;
unicode = 002A;
},
{
glyphname = numbersign;
lastChange = "2019-01-02 21:31:45 +0000";
layers = (
{
layerId = "209BF778-B46C-485B-99E1-60046645AA57";
paths = (
{
closed = 1;
nodes = (
"373 0 LINE",
"384 77 LINE",
"426 77 LINE",
"415 0 LINE",
"695 0 LINE",
"706 77 LINE",
"800 77 LINE",
"800 217 LINE",
"725 217 LINE",
"731 259 LINE",
"824 259 LINE",
"824 399 LINE",
"750 399 LINE",
"761 475 LINE",
"481 475 LINE",
"470 399 LINE",
"428 399 LINE",
"439 475 LINE",
"159 475 LINE",
"148 399 LINE",
"54 399 LINE",
"54 259 LINE",
"129 259 LINE",
"123 217 LINE",
"30 217 LINE",
"30 77 LINE",
"104 77 LINE",
"93 0 LINE"
);
},
{
closed = 1;
nodes = (
"409 259 LINE",
"451 259 LINE",
"445 217 LINE",
"403 217 LINE"
);
}
);
width = 854;
}
);
leftKerningGroup = numbersign;
leftMetricsKey = n;
rightKerningGroup = numbersign;
rightMetricsKey = d;
unicode = 0023;
},
{
glyphname = slash;
lastChange = "2019-01-02 21:31:45 +0000";
layers = (
{
layerId = "209BF778-B46C-485B-99E1-60046645AA57";
paths = (
{
closed = 1;
nodes = (
"319 -99 LINE",
"600 670 LINE",
"281 670 LINE",
"0 -99 LINE"
);
}
);
width = 600;
}
);
leftKerningGroup = slash;
rightKerningGroup = slash;
unicode = 002F;
},
{
glyphname = backslash;
lastChange = "2019-01-02 21:31:45 +0000";
layers = (
{
layerId = "209BF778-B46C-485B-99E1-60046645AA57";
paths = (
{
closed = 1;
nodes = (
"600 -99 LINE",
"319 670 LINE",
"0 670 LINE",
"281 -99 LINE"
);
}
);
width = 600;
}
);
leftKerningGroup = backslash;
rightKerningGroup = backslash;
unicode = 005C;
},
{
glyphname = numbersign.01;
lastChange = "2019-01-02 21:31:45 +0000";
layers = (
{
layerId = "209BF778-B46C-485B-99E1-60046645AA57";
paths = (
{
closed = 1;
nodes = (
"380 0 LINE",
"394 100 LINE",
"436 100 LINE",
"422 0 LINE",
"702 0 LINE",
"716 100 LINE",
"840 100 LINE",
"840 315 LINE",
"745 315 LINE",
"751 357 LINE",
"864 357 LINE",
"864 572 LINE",
"781 572 LINE",
"794 670 LINE",
"514 670 LINE",
"501 572 LINE",
"459 572 LINE",
"472 670 LINE",
"192 670 LINE",
"179 572 LINE",
"54 572 LINE",
"54 357 LINE",
"149 357 LINE",
"143 315 LINE",
"30 315 LINE",
"30 100 LINE",
"114 100 LINE",
"100 0 LINE"
);
},
{
closed = 1;
nodes = (
"429 357 LINE",
"471 357 LINE",
"465 315 LINE",
"423 315 LINE"
);
}
);
width = 894;
}
);
leftKerningGroup = numbersign.01;
leftMetricsKey = n;
rightKerningGroup = numbersign.01;
rightMetricsKey = d;
},
{
glyphname = parenleft;
lastChange = "2019-01-02 21:31:45 +0000";
layers = (
{
layerId = "209BF778-B46C-485B-99E1-60046645AA57";
paths = (
{
closed = 1;
nodes = (
"381 -170 LINE",
"381 -30 LINE",
"327 -30 LINE",
"260 40 LINE",
"260 590 LINE",
"327 660 LINE",
"381 660 LINE",
"381 800 LINE",
"199 800 LINE",
"30 624 LINE",
"30 6 LINE",
"199 -170 LINE"
);
}
);
width = 391;
}
);
leftKerningGroup = parenleft;
leftMetricsKey = n;
rightKerningGroup = parenleft;
unicode = 0028;
},
{
glyphname = braceleft;
lastChange = "2019-01-02 21:31:45 +0000";
layers = (
{
layerId = "209BF778-B46C-485B-99E1-60046645AA57";
paths = (
{
closed = 1;
nodes = (
"420 -170 LINE",
"420 -30 LINE",
"340 -30 LINE",
"340 -30 LINE",
"340 240 LINE",
"265 315 LINE",
"340 390 LINE",
"340 660 LINE",
"340 660 LINE",
"420 660 LINE",
"420 800 LINE",
"217 800 LINE",
"110 684 LINE",
"110 380 LINE",
"110 380 LINE",
"30 380 LINE",
"30 250 LINE",
"110 250 LINE",
"110 250 LINE",
"110 -54 LINE",
"217 -170 LINE"
);
}
);
width = 430;
}
);
leftKerningGroup = braceleft;
leftMetricsKey = n;
rightKerningGroup = braceleft;
unicode = 007B;
},
{
glyphname = bracketleft;
lastChange = "2019-01-02 21:31:45 +0000";
layers = (
{
layerId = "209BF778-B46C-485B-99E1-60046645AA57";
paths = (
{
closed = 1;
nodes = (
"340 -170 LINE",
"340 -30 LINE",
"260 -30 LINE",
"260 660 LINE",
"340 660 LINE",
"340 800 LINE",
"30 800 LINE",
"30 -170 LINE"
);
}
);
width = 350;
}
);
leftKerningGroup = bracketleft;
leftMetricsKey = n;
rightKerningGroup = bracketleft;
unicode = 005B;
},
{
glyphname = hyphen;
lastChange = "2019-02-10 20:48:36 +0000";
layers = (
{
layerId = "209BF778-B46C-485B-99E1-60046645AA57";
paths = (
{
closed = 1;
nodes = (
"330 146 LINE",
"330 322 LINE",
"30 322 LINE",
"30 146 LINE"
);
}
);
width = 420;
}
);
leftKerningGroup = hyphen;
rightKerningGroup = hyphen;
unicode = 002D;
},
{
glyphname = endash;
lastChange = "2019-02-17 18:55:07 +0000";
layers = (
{
layerId = "209BF778-B46C-485B-99E1-60046645AA57";
paths = (
{
closed = 1;
nodes = (
"630 156 LINE",
"630 332 LINE",
"30 332 LINE",
"30 156 LINE"
);
}
);
width = 720;
}
);
leftKerningGroup = hyphen;
leftMetricsKey = hyphen;
rightKerningGroup = hyphen;
rightMetricsKey = hyphen;
unicode = 2013;
},
{
glyphname = emdash;
lastChange = "2019-02-17 18:55:11 +0000";
layers = (
{
layerId = "209BF778-B46C-485B-99E1-60046645AA57";
paths = (
{
closed = 1;
nodes = (
"902 156 LINE",
"902 332 LINE",
"30 332 LINE",
"30 156 LINE"
);
}
);
width = 992;
}
);
leftKerningGroup = hyphen;
leftMetricsKey = hyphen;
rightKerningGroup = hyphen;
rightMetricsKey = hyphen;
unicode = 2014;
},
{
glyphname = underscore;
lastChange = "2019-01-02 21:31:45 +0000";
layers = (
{
layerId = "209BF778-B46C-485B-99E1-60046645AA57";
paths = (
{
closed = 1;
nodes = (
"608 -198 LINE",
"608 -22 LINE",
"0 -22 LINE",
"0 -198 LINE"
);
}
);
width = 608;
}
);
leftKerningGroup = underscore;
rightKerningGroup = underscore;
unicode = 005F;
},
{
glyphname = quoteright;
lastChange = "2019-01-02 21:31:45 +0000";
layers = (
{
layerId = "209BF778-B46C-485B-99E1-60046645AA57";
paths = (
{
closed = 1;
nodes = (
"195 373 LINE",
"333 670 LINE",
"79 670 LINE",
"30 373 LINE"
);
}
);
width = 363;
}
);
leftKerningGroup = quotedblleft;
rightKerningGroup = quotedblleft;
unicode = 2019;
},
{
glyphname = guilsinglleft;
lastChange = "2019-01-02 21:31:45 +0000";
layers = (
{
layerId = "209BF778-B46C-485B-99E1-60046645AA57";
paths = (
{
closed = 1;
nodes = (
"456 0 LINE",
"280 238 LINE",
"280 238 LINE",
"456 475 LINE",
"176 475 LINE",
"0 238 LINE",
"0 238 LINE",
"176 0 LINE"
);
}
);
width = 456;
}
);
leftKerningGroup = guillemotleft;
rightKerningGroup = guillemotleft;
unicode = 2039;
},
{
glyphname = quotesingle;
lastChange = "2019-01-02 21:31:45 +0000";
layers = (
{
layerId = "209BF778-B46C-485B-99E1-60046645AA57";
paths = (
{
closed = 1;
nodes = (
"214 373 LINE",
"262 670 LINE",
"30 670 LINE",
"78 373 LINE"
);
}
);
width = 292;
}
);
leftKerningGroup = quotesingle;
rightKerningGroup = quotesingle;
unicode = 0027;
},
{
glyphname = "leftanglebracket-math";
lastChange = "2019-01-02 21:31:45 +0000";
layers = (
{
layerId = "209BF778-B46C-485B-99E1-60046645AA57";
paths = (
{
closed = 1;
nodes = (
"526 -170 LINE",
"349 315 LINE",
"526 800 LINE",
"207 800 LINE",
"30 315 LINE",
"207 -170 LINE"
);
}
);
width = 536;
}
);
leftMetricsKey = braceleft;
rightMetricsKey = braceleft;
unicode = 27E8;
},
{
glyphname = .notdef;
lastChange = "2019-01-02 21:31:45 +0000";
layers = (
{
layerId = "209BF778-B46C-485B-99E1-60046645AA57";
paths = (
{
closed = 1;
nodes = (
"155 -30 LINE",
"155 20 LINE",
"192 55 LINE",
"468 55 LINE",
"505 20 LINE",
"505 -30 LINE",
"630 -30 LINE",
"630 95 LINE",
"529 180 LINE",
"131 180 LINE",
"30 95 LINE",
"30 -30 LINE"
);
},
{
closed = 1;
nodes = (
"289 267 LINE",
"289 475 LINE",
"138 475 LINE",
"138 267 LINE"
);
},
{
closed = 1;
nodes = (
"522 267 LINE",
"522 475 LINE",
"371 475 LINE",
"371 267 LINE"
);
}
);
width = 660;
}
);
leftKerningGroup = .notdef;
leftMetricsKey = n;
rightKerningGroup = .notdef;
rightMetricsKey = d;
},
{
glyphname = cedi;
lastChange = "2019-01-02 21:31:45 +0000";
layers = (
{
components = (
{
name = C;
}
);
layerId = "209BF778-B46C-485B-99E1-60046645AA57";
paths = (
{
closed = 1;
nodes = (
"526 -100 LINE",
"526 74 LINE",
"246 74 LINE",
"246 -100 LINE"
);
},
{
closed = 1;
nodes = (
"526 560 LINE",
"526 770 LINE",
"246 770 LINE",
"246 560 LINE"
);
}
);
width = 772;
}
);
leftMetricsKey = C;
rightMetricsKey = C;
unicode = 20B5;
},
{
glyphname = cent;
lastChange = "2019-01-02 21:31:45 +0000";
layers = (
{
hints = (
{
origin = "{0, 10}";
type = Corner;
name = _corner.dia_dir;
options = 1;
},
{
origin = "{0, 11}";
type = Corner;
name = _corner.dia_esq;
options = 1;
},
{
origin = "{0, 12}";
type = Corner;
name = _corner.dia_dir;
options = 1;
}
);
layerId = "209BF778-B46C-485B-99E1-60046645AA57";
paths = (
{
closed = 1;
nodes = (
"521 98 LINE",
"625 183 LINE",
"625 317 LINE",
"346 317 LINE",
"346 183 LINE",
"304 183 LINE",
"304 488 LINE",
"346 488 LINE",
"346 359 LINE",
"625 359 LINE",
"625 573 LINE",
"25 573 LINE",
"25 98 LINE"
);
},
{
closed = 1;
nodes = (
"455 0 LINE",
"455 132 LINE",
"195 132 LINE",
"195 0 LINE"
);
},
{
closed = 1;
nodes = (
"455 526 LINE",
"455 670 LINE",
"195 670 LINE",
"195 526 LINE"
);
}
);
width = 655;
}
);
leftMetricsKey = c;
rightMetricsKey = c;
unicode = 00A2;
},
{
glyphname = colonsign;
lastChange = "2019-01-02 21:31:45 +0000";
layers = (
{
components = (
{
name = C;
}
);
layerId = "209BF778-B46C-485B-99E1-60046645AA57";
paths = (
{
closed = 1;
nodes = (
"392 595 LINE",
"408 770 LINE",
"227 770 LINE",
"211 595 LINE"
);
},
{
closed = 1;
nodes = (
"615 595 LINE",
"631 770 LINE",
"450 770 LINE",
"434 595 LINE"
);
},
{
closed = 1;
nodes = (
"325 -99 LINE",
"341 69 LINE",
"160 69 LINE",
"144 -99 LINE"
);
},
{
closed = 1;
nodes = (
"548 -99 LINE",
"564 69 LINE",
"383 69 LINE",
"367 -99 LINE"
);
}
);
width = 772;
}
);
unicode = 20A1;
},
{
glyphname = currency;
lastChange = "2019-01-02 21:31:45 +0000";
layers = (
{
layerId = "209BF778-B46C-485B-99E1-60046645AA57";
paths = (
{
closed = 1;
nodes = (
"436 95 LINE",
"560 221 LINE",
"560 327 LINE",
"436 453 LINE",
"168 453 LINE",
"44 327 LINE",
"44 221 LINE",
"168 95 LINE"
);
},
{
closed = 1;
nodes = (
"197 171 LINE",
"120 248 LINE",
"21 150 LINE",
"97 73 LINE"
);
},
{
closed = 1;
nodes = (
"197 377 LINE",
"97 475 LINE",
"21 398 LINE",
"120 300 LINE"
);
},
{
closed = 1;
nodes = (
"281 195 LINE",
"281 353 LINE",
"281 373 LINE",
"323 373 LINE",
"323 353 LINE",
"323 195 LINE",
"323 175 LINE",
"281 175 LINE"
);
},
{
closed = 1;
nodes = (
"583 150 LINE",
"484 248 LINE",
"407 171 LINE",
"507 73 LINE"
);
},
{
closed = 1;
nodes = (
"583 398 LINE",
"507 475 LINE",
"407 377 LINE",
"484 300 LINE"
);
}
);
width = 604;
}
);
unicode = 00A4;
},
{
glyphname = dollar;
lastChange = "2019-01-02 21:31:45 +0000";
layers = (
{
components = (
{
name = S;
}
);
layerId = "209BF778-B46C-485B-99E1-60046645AA57";
paths = (
{
closed = 1;
nodes = (
"506 -100 LINE",
"506 74 LINE",
"226 74 LINE",
"226 -100 LINE"
);
},
{
closed = 1;
nodes = (
"506 560 LINE",
"506 770 LINE",
"226 770 LINE",
"226 560 LINE"
);
}
);
width = 712;
}
);
leftMetricsKey = S;
rightMetricsKey = S;
unicode = 0024;
},
{
glyphname = euro;
lastChange = "2019-02-17 18:54:22 +0000";
layers = (
{
anchors = (
{
name = botton;
position = "{434, 0}";
},
{
name = top;
position = "{436, 670}";
}
);
hints = (
{
origin = "{0, 12}";
type = Corner;
name = _corner.dia_esq;
options = 1;
},
{
origin = "{0, 13}";
type = Corner;
name = _corner.dia_dir;
options = 1;
}
);
layerId = "209BF778-B46C-485B-99E1-60046645AA57";
paths = (
{
closed = 1;
nodes = (
"698 0 LINE",
"802 85 LINE",
"802 307 LINE",
"492 307 LINE",
"492 125 LINE",
"380 125 LINE",
"380 545 LINE",
"492 545 LINE",
"492 367 LINE",
"802 367 LINE",
"802 585 LINE",
"698 670 LINE",
"80 670 LINE",
"80 0 LINE"
);
},
{
closed = 1;
nodes = (
"425 173 LINE",
"425 313 LINE",
"30 313 LINE",
"30 173 LINE"
);
},
{
closed = 1;
nodes = (
"458 361 LINE",
"458 497 LINE",
"30 497 LINE",
"30 361 LINE"
);
}
);
width = 832;
}
);
leftMetricsKey = C;
rightMetricsKey = C;
unicode = 20AC;
},
{
glyphname = florin;
lastChange = "2019-01-02 21:31:45 +0000";
layers = (
{
layerId = "209BF778-B46C-485B-99E1-60046645AA57";
paths = (
{
closed = 1;
nodes = (
"210 -102 LINE",
"314 -17 LINE",
"314 555 LINE",
"314 555 LINE",
"419 555 LINE",
"419 670 LINE",
"139 670 LINE",
"35 585 LINE",
"35 13 LINE",
"35 13 LINE",
"-70 13 LINE",
"-70 -102 LINE"
);
},
{
closed = 1;
nodes = (
"396 360 LINE",
"396 475 LINE",
"-5 475 LINE",
"-5 360 LINE"
);
}
);
width = 419;
}
);
rightMetricsKey = f;
unicode = 0192;
},
{
glyphname = guarani;
lastChange = "2019-01-02 21:31:45 +0000";
layers = (
{
components = (
{
name = G;
}
);
layerId = "209BF778-B46C-485B-99E1-60046645AA57";
paths = (
{
closed = 1;
nodes = (
"526 -100 LINE",
"526 74 LINE",
"246 74 LINE",
"246 -100 LINE"
);
},
{
closed = 1;
nodes = (
"526 560 LINE",
"526 770 LINE",
"246 770 LINE",
"246 560 LINE"
);
}
);
width = 772;
}
);
leftMetricsKey = G;
rightMetricsKey = G;
unicode = 20B2;
},
{
glyphname = kip;
lastChange = "2019-01-02 21:31:45 +0000";
layers = (
{
anchors = (
{
name = _center;
position = "{210, 346}";
}
);
components = (
{
name = K;
transform = "{1, 0, 0, 1, 30, 0}";
}
);
layerId = "209BF778-B46C-485B-99E1-60046645AA57";
paths = (
{
closed = 1;
nodes = (
"798 289 LINE",
"798 425 LINE",
"30 425 LINE",
"30 289 LINE"
);
}
);
width = 828;
}
);
leftMetricsKey = H;
rightMetricsKey = H;
unicode = 20AD;
},
{
glyphname = lira;
lastChange = "2019-01-02 21:31:45 +0000";
layers = (
{
hints = (
{
origin = "{0, 6}";
type = Corner;
name = _corner.dia_esq;
options = 1;
},
{
origin = "{0, 5}";
type = Corner;
name = _corner.dia_dir;
options = 1;
}
);
layerId = "209BF778-B46C-485B-99E1-60046645AA57";
paths = (
{
closed = 1;
nodes = (
"410 0 LINE",
"410 545 LINE",
"522 545 LINE",
"522 442 LINE",
"792 442 LINE",
"792 670 LINE",
"80 670 LINE",
"80 0 LINE"
);
},
{
closed = 1;
nodes = (
"792 0 LINE",
"792 215 LINE",
"30 215 LINE",
"30 0 LINE"
);
},
{
closed = 1;
nodes = (
"488 245 LINE",
"488 365 LINE",
"30 365 LINE",
"30 245 LINE"
);
},
{
closed = 1;
nodes = (
"488 387 LINE",
"488 507 LINE",
"30 507 LINE",
"30 387 LINE"
);
}
);
width = 822;
}
);
leftMetricsKey = euro;
rightMetricsKey = E;
unicode = 20A4;
},
{
glyphname = liraTurkish;
lastChange = "2019-01-02 21:31:45 +0000";
layers = (
{
components = (
{
name = _part.H;
transform = "{1, 0, 0, 1, 49, 0}";
}
);
hints = (
{
origin = "{0, 0}";
type = Corner;
name = _corner.dia_esq;
options = 1;
}
);
layerId = "209BF778-B46C-485B-99E1-60046645AA57";
paths = (
{
closed = 1;
nodes = (
"791 0 LINE",
"791 280 LINE",
"461 280 LINE",
"461 125 LINE",
"387 125 LINE",
"387 0 LINE"
);
},
{
closed = 1;
nodes = (
"555 350 LINE",
"555 485 LINE",
"30 296 LINE",
"30 161 LINE"
);
},
{
closed = 1;
nodes = (
"555 525 LINE",
"555 660 LINE",
"30 471 LINE",
"30 336 LINE"
);
}
);
width = 821;
}
);
leftMetricsKey = euro;
rightMetricsKey = O;
unicode = 20BA;
},
{
glyphname = manat;
lastChange = "2019-01-02 21:31:45 +0000";
layers = (
{
background = {
paths = (
{
closed = 1;
nodes = (
"638 0 LINE",
"742 85 LINE",
"742 586 LINE",
"638 671 LINE",
"134 671 LINE",
"30 586 LINE",
"30 85 LINE",
"134 0 LINE"
);
},
{
closed = 1;
nodes = (
"360 546 LINE",
"412 546 LINE",
"412 125 LINE",
"360 125 LINE"
);
}
);
};
layerId = "209BF778-B46C-485B-99E1-60046645AA57";
paths = (
{
closed = 1;
nodes = (
"360 0 LINE",
"360 445 LINE",
"744 445 LINE",
"744 0 LINE",
"1074 0 LINE",
"1074 485 LINE",
"970 570 LINE",
"134 570 LINE",
"30 485 LINE",
"30 0 LINE"
);
},
{
closed = 1;
nodes = (
"692 0 LINE",
"692 670 LINE",
"412 670 LINE",
"412 0 LINE"
);
}
);
width = 1104;
}
);
leftMetricsKey = O;
rightMetricsKey = O;
unicode = 20BC;
},
{
glyphname = naira;
lastChange = "2019-01-02 21:31:45 +0000";
layers = (
{
components = (
{
name = N;
transform = "{1, 0, 0, 1, 50, 0}";
}
);
layerId = "209BF778-B46C-485B-99E1-60046645AA57";
paths = (
{
closed = 1;
nodes = (
"151 245 LINE",
"151 365 LINE",
"30 365 LINE",
"30 245 LINE"
);
},
{
closed = 1;
nodes = (
"151 387 LINE",
"151 507 LINE",
"30 507 LINE",
"30 387 LINE"
);
},
{
closed = 1;
nodes = (
"856 245 LINE",
"856 365 LINE",
"730 365 LINE",
"730 245 LINE"
);
},
{
closed = 1;
nodes = (
"856 387 LINE",
"856 507 LINE",
"730 507 LINE",
"730 387 LINE"
);
}
);
width = 886;
}
);
leftMetricsKey = euro;
rightMetricsKey = euro;
unicode = 20A6;
},
{
glyphname = peseta;
lastChange = "2019-01-02 21:31:45 +0000";
layers = (
{
components = (
{
name = P;
transform = "{1, 0, 0, 1, 50, 0}";
}
);
layerId = "209BF778-B46C-485B-99E1-60046645AA57";
paths = (
{
closed = 1;
nodes = (
"151 361 LINE",
"151 481 LINE",
"30 481 LINE",
"30 361 LINE"
);
},
{
closed = 1;
nodes = (
"842 361 LINE",
"842 481 LINE",
"716 481 LINE",
"716 361 LINE"
);
}
);
width = 862;
}
);
leftMetricsKey = euro;
rightMetricsKey = P;
unicode = 20A7;
},
{
glyphname = peso;
lastChange = "2019-01-02 21:31:45 +0000";
layers = (
{
components = (
{
name = P;
transform = "{1, 0, 0, 1, 50, 0}";
}
);
layerId = "209BF778-B46C-485B-99E1-60046645AA57";
paths = (
{
closed = 1;
nodes = (
"151 291 LINE",
"151 411 LINE",
"30 411 LINE",
"30 291 LINE"
);
},
{
closed = 1;
nodes = (
"151 433 LINE",
"151 553 LINE",
"30 553 LINE",
"30 433 LINE"
);
},
{
closed = 1;
nodes = (
"842 291 LINE",
"842 411 LINE",
"716 411 LINE",
"716 291 LINE"
);
},
{
closed = 1;
nodes = (
"842 433 LINE",
"842 553 LINE",
"716 553 LINE",
"716 433 LINE"
);
}
);
width = 862;
}
);
leftMetricsKey = euro;
rightMetricsKey = P;
unicode = 20B1;
},
{
glyphname = ruble;
lastChange = "2019-01-02 21:31:45 +0000";
layers = (
{
components = (
{
name = P;
transform = "{1, 0, 0, 1, 50, 0}";
}
);
guideLines = (
{
position = "{462, 297}";
},
{
position = "{688, 172}";
}
);
layerId = "209BF778-B46C-485B-99E1-60046645AA57";
paths = (
{
closed = 1;
nodes = (
"670 30 LINE",
"670 150 LINE",
"30 150 LINE",
"30 30 LINE"
);
},
{
closed = 1;
nodes = (
"151 172 LINE",
"151 292 LINE",
"30 292 LINE",
"30 172 LINE"
);
}
);
width = 812;
}
);
leftMetricsKey = euro;
rightMetricsKey = P;
unicode = 20BD;
},
{
glyphname = rupeeIndian;
lastChange = "2019-01-02 21:31:45 +0000";
layers = (
{
hints = (
{
origin = "{0, 0}";
type = Corner;
name = _corner.dia_esq;
options = 1;
},
{
origin = "{0, 1}";
type = Corner;
name = _corner.dia_dir;
options = 1;
}
);
layerId = "209BF778-B46C-485B-99E1-60046645AA57";
paths = (
{
closed = 1;
nodes = (
"642 219 LINE",
"642 671 LINE",
"30 671 LINE",
"30 546 LINE",
"312 546 LINE",
"312 372 LINE",
"30 372 LINE",
"30 219 LINE"
);
},
{
closed = 1;
nodes = (
"674 0 LINE",
"448 219 LINE",
"30 219 LINE",
"239 0 LINE"
);
},
{
closed = 1;
nodes = (
"692 399 LINE",
"692 519 LINE",
"30 519 LINE",
"30 399 LINE"
);
},
{
closed = 1;
nodes = (
"692 551 LINE",
"692 671 LINE",
"485 671 LINE",
"485 551 LINE"
);
}
);
width = 702;
}
);
leftMetricsKey = H;
rightMetricsKey = R;
unicode = 20B9;
},
{
glyphname = sterling;
lastChange = "2019-01-02 21:31:45 +0000";
layers = (
{
layerId = "209BF778-B46C-485B-99E1-60046645AA57";
paths = (
{
closed = 1;
nodes = (
"434 87 LINE",
"434 545 LINE",
"486 545 LINE",
"486 455 LINE",
"816 455 LINE",
"816 585 LINE",
"712 670 LINE",
"208 670 LINE",
"104 585 LINE",
"104 87 LINE"
);
},
{
closed = 1;
nodes = (
"641 267 LINE",
"641 403 LINE",
"30 403 LINE",
"30 267 LINE"
);
},
{
closed = 1;
nodes = (
"816 0 LINE",
"816 215 LINE",
"30 215 LINE",
"30 0 LINE"
);
}
);
width = 846;
}
);
leftMetricsKey = C;
rightMetricsKey = E;
unicode = 00A3;
},
{
glyphname = won;
lastChange = "2019-01-02 21:31:45 +0000";
layers = (
{
components = (
{
name = W;
transform = "{1, 0, 0, 1, 60, 0}";
}
);
layerId = "209BF778-B46C-485B-99E1-60046645AA57";
paths = (
{
closed = 1;
nodes = (
"151 291 LINE",
"151 411 LINE",
"30 411 LINE",
"30 291 LINE"
);
},
{
closed = 1;
nodes = (
"151 433 LINE",
"151 553 LINE",
"30 553 LINE",
"30 433 LINE"
);
},
{
closed = 1;
nodes = (
"1194 291 LINE",
"1194 411 LINE",
"1073 411 LINE",
"1073 291 LINE"
);
},
{
closed = 1;
nodes = (
"1194 433 LINE",
"1194 553 LINE",
"1073 553 LINE",
"1073 433 LINE"
);
}
);
width = 1224;
}
);
leftMetricsKey = euro;
unicode = 20A9;
},
{
glyphname = yen;
lastChange = "2019-01-02 21:31:45 +0000";
layers = (
{
layerId = "209BF778-B46C-485B-99E1-60046645AA57";
paths = (
{
closed = 1;
nodes = (
"540 0 LINE",
"540 246 LINE",
"730 410 LINE",
"730 670 LINE",
"400 670 LINE",
"400 394 LINE",
"350 394 LINE",
"350 670 LINE",
"20 670 LINE",
"20 410 LINE",
"210 247 LINE",
"210 0 LINE"
);
},
{
closed = 1;
nodes = (
"652 52 LINE",
"652 152 LINE",
"99 152 LINE",
"99 52 LINE"
);
},
{
closed = 1;
nodes = (
"652 184 LINE",
"652 284 LINE",
"99 284 LINE",
"99 184 LINE"
);
}
);
width = 750;
}
);
leftMetricsKey = Y;
rightMetricsKey = Y;
unicode = 00A5;
},
{
glyphname = commercialMinusSign;
lastChange = "2019-01-02 21:31:45 +0000";
layers = (
{
components = (
{
name = period;
transform = "{1, 0, 0, 1, -20, 473}";
},
{
name = period;
transform = "{1, 0, 0, 1, 328, 0}";
}
);
layerId = "209BF778-B46C-485B-99E1-60046645AA57";
paths = (
{
closed = 1;
nodes = (
"570 599 LINE",
"420 688 LINE",
"74 73 LINE",
"224 -16 LINE"
);
}
);
width = 642;
}
);
leftMetricsKey = percent;
rightMetricsKey = percent;
unicode = 2052;
},
{
glyphname = plus;
lastChange = "2019-02-10 20:02:06 +0000";
layers = (
{
layerId = "209BF778-B46C-485B-99E1-60046645AA57";
paths = (
{
closed = 1;
nodes = (
"430 247 LINE",
"430 423 LINE",
"30 423 LINE",
"30 247 LINE"
);
},
{
closed = 1;
nodes = (
"318 135 LINE",
"318 535 LINE",
"142 535 LINE",
"142 135 LINE"
);
}
);
width = 460;
}
);
unicode = 002B;
},
{
glyphname = minus;
lastChange = "2019-02-10 20:02:18 +0000";
layers = (
{
layerId = "209BF778-B46C-485B-99E1-60046645AA57";
paths = (
{
closed = 1;
nodes = (
"430 247 LINE",
"430 423 LINE",
"30 423 LINE",
"30 247 LINE"
);
}
);
width = 460;
}
);
leftMetricsKey = plus;
rightMetricsKey = plus;
unicode = 2212;
},
{
glyphname = multiply;
lastChange = "2019-01-02 21:31:45 +0000";
layers = (
{
layerId = "209BF778-B46C-485B-99E1-60046645AA57";
paths = (
{
closed = 1;
nodes = (
"30 480 LINE",
"155 605 LINE",
"579 181 LINE",
"454 56 LINE"
);
},
{
closed = 1;
nodes = (
"37 188 LINE",
"454 605 LINE",
"579 480 LINE",
"162 63 LINE"
);
}
);
width = 609;
}
);
leftMetricsKey = plus;
rightMetricsKey = plus;
unicode = 00D7;
},
{
glyphname = divide;
lastChange = "2019-01-02 21:31:45 +0000";
layers = (
{
layerId = "209BF778-B46C-485B-99E1-60046645AA57";
paths = (
{
closed = 1;
nodes = (
"510 247 LINE",
"510 423 LINE",
"30 423 LINE",
"30 247 LINE"
);
},
{
closed = 1;
nodes = (
"358 75 LINE",
"358 207 LINE",
"182 207 LINE",
"182 75 LINE"
);
},
{
closed = 1;
nodes = (
"358 463 LINE",
"358 595 LINE",
"182 595 LINE",
"182 463 LINE"
);
}
);
width = 540;
}
);
leftMetricsKey = plus;
rightMetricsKey = plus;
unicode = 00F7;
},
{
glyphname = equal;
lastChange = "2019-01-02 21:31:45 +0000";
layers = (
{
layerId = "209BF778-B46C-485B-99E1-60046645AA57";
paths = (
{
closed = 1;
nodes = (
"510 133 LINE",
"510 309 LINE",
"30 309 LINE",
"30 133 LINE"
);
},
{
closed = 1;
nodes = (
"510 361 LINE",
"510 537 LINE",
"30 537 LINE",
"30 361 LINE"
);
}
);
width = 540;
}
);
unicode = 003D;
},
{
glyphname = notequal;
lastChange = "2019-01-02 21:31:45 +0000";
layers = (
{
components = (
{
name = equal;
}
);
layerId = "209BF778-B46C-485B-99E1-60046645AA57";
paths = (
{
closed = 1;
nodes = (
"503 572 LINE",
"403 640 LINE",
"38 99 LINE",
"138 31 LINE"
);
}
);
width = 540;
}
);
unicode = 2260;
},
{
glyphname = greater;
lastChange = "2019-01-02 21:31:45 +0000";
layers = (
{
layerId = "209BF778-B46C-485B-99E1-60046645AA57";
paths = (
{
closed = 1;
nodes = (
"399 335 LINE",
"399 335 LINE",
"155 579 LINE",
"30 454 LINE",
"149 335 LINE",
"149 335 LINE",
"30 216 LINE",
"155 91 LINE"
);
}
);
width = 429;
}
);
leftMetricsKey = plus;
rightMetricsKey = plus;
unicode = 003E;
},
{
glyphname = greaterequal;
lastChange = "2019-01-02 21:31:45 +0000";
layers = (
{
components = (
{
name = greater;
}
);
guideLines = (
{
angle = 270;
position = "{399, 335}";
}
);
layerId = "209BF778-B46C-485B-99E1-60046645AA57";
paths = (
{
closed = 1;
nodes = (
"399 0 LINE",
"399 127 LINE",
"30 127 LINE",
"30 0 LINE"
);
}
);
width = 429;
}
);
unicode = 2265;
},
{
glyphname = logicalnot;
lastChange = "2019-02-10 20:53:24 +0000";
layers = (
{
layerId = "209BF778-B46C-485B-99E1-60046645AA57";
paths = (
{
closed = 1;
nodes = (
"480 299 LINE",
"480 475 LINE",
"30 475 LINE",
"30 299 LINE"
);
},
{
closed = 1;
nodes = (
"304 250 LINE",
"480 250 LINE",
"480 475 LINE",
"304 475 LINE"
);
}
);
width = 510;
}
);
unicode = 00AC;
},
{
glyphname = asciicircum;
lastChange = "2019-01-02 21:31:45 +0000";
layers = (
{
layerId = "209BF778-B46C-485B-99E1-60046645AA57";
paths = (
{
closed = 1;
nodes = (
"215 475 LINE",
"328 587 LINE",
"328 587 LINE",
"441 475 LINE",
"626 475 LINE",
"477 670 LINE",
"179 670 LINE",
"30 475 LINE"
);
}
);
width = 656;
}
);
leftKerningGroup = asciicircum;
leftMetricsKey = n;
rightKerningGroup = asciicircum;
rightMetricsKey = d;
unicode = 005E;
},
{
glyphname = percent;
lastChange = "2019-01-02 21:31:45 +0000";
layers = (
{
layerId = "209BF778-B46C-485B-99E1-60046645AA57";
paths = (
{
closed = 1;
nodes = (
"809 586 LINE",
"679 696 LINE",
"156 84 LINE",
"286 -26 LINE"
);
},
{
closed = 1;
nodes = (
"282 310 LINE",
"386 395 LINE",
"386 585 LINE",
"282 670 LINE",
"134 670 LINE",
"30 585 LINE",
"30 395 LINE",
"134 310 LINE"
);
},
{
closed = 1;
nodes = (
"182 516 LINE",
"234 516 LINE",
"234 464 LINE",
"182 464 LINE"
);
},
{
closed = 1;
nodes = (
"831 0 LINE",
"935 85 LINE",
"935 275 LINE",
"831 360 LINE",
"683 360 LINE",
"579 275 LINE",
"579 85 LINE",
"683 0 LINE"
);
},
{
closed = 1;
nodes = (
"731 206 LINE",
"783 206 LINE",
"783 154 LINE",
"731 154 LINE"
);
}
);
width = 965;
}
);
leftMetricsKey = plus;
rightMetricsKey = plus;
unicode = 0025;
},
{
glyphname = perthousand;
lastChange = "2019-01-02 21:31:45 +0000";
layers = (
{
components = (
{
name = percent;
}
);
layerId = "209BF778-B46C-485B-99E1-60046645AA57";
paths = (
{
closed = 1;
nodes = (
"1220 0 LINE",
"1324 85 LINE",
"1324 275 LINE",
"1220 360 LINE",
"1072 360 LINE",
"968 275 LINE",
"968 85 LINE",
"1072 0 LINE"
);
},
{
closed = 1;
nodes = (
"1120 154 LINE",
"1120 206 LINE",
"1120 206 LINE",
"1172 206 LINE",
"1172 206 LINE",
"1172 154 LINE",
"1172 154 LINE",
"1120 154 LINE"
);
}
);
width = 1354;
}
);
leftMetricsKey = percent;
rightMetricsKey = percent;
unicode = 2030;
},
{
glyphname = lozenge;
lastChange = "2019-01-02 21:31:45 +0000";
layers = (
{
layerId = "209BF778-B46C-485B-99E1-60046645AA57";
paths = (
{
closed = 1;
nodes = (
"483 0 LINE",
"702 335 LINE",
"702 335 LINE",
"483 670 LINE",
"249 670 LINE",
"30 335 LINE",
"30 335 LINE",
"249 0 LINE"
);
},
{
closed = 1;
nodes = (
"307 335 LINE",
"307 335 LINE",
"366 426 LINE",
"366 426 LINE",
"426 335 LINE",
"426 335 LINE",
"366 244 LINE",
"366 244 LINE"
);
}
);
width = 732;
}
);
leftKerningGroup = lozenge;
leftMetricsKey = V;
rightKerningGroup = lozenge;
rightMetricsKey = V;
unicode = 25CA;
},
{
glyphname = at;
lastChange = "2019-01-02 21:31:45 +0000";
layers = (
{
hints = (
{
horizontal = 1;
origin = "{0, 32}";
target = "{0, 4}";
type = Stem;
},
{
horizontal = 1;
origin = "{0, 21}";
target = "{1, 7}";
type = Stem;
},
{
horizontal = 1;
origin = "{1, 2}";
target = "{0, 17}";
type = Stem;
},
{
horizontal = 1;
origin = "{0, 7}";
target = "{0, 29}";
type = Stem;
},
{
place = "{95, 20}";
type = Stem;
},
{
place = "{285, 20}";
type = Stem;
},
{
place = "{584, 20}";
type = Stem;
},
{
place = "{800, 20}";
type = Stem;
}
);
layerId = "209BF778-B46C-485B-99E1-60046645AA57";
paths = (
{
closed = 1;
nodes = (
"1039 -170 LINE",
"1139 -170 LINE",
"1139 -30 LINE",
"1068 -30 LINE",
"401 -30 LINE",
"270 77 LINE",
"270 410 LINE",
"401 517 LINE",
"710 516 LINE",
"905 517 LINE",
"955 477 LINE",
"955 140 LINE",
"955 140 LINE",
"913 140 LINE",
"913 475 LINE",
"633 475 LINE",
"633 445 LINE",
"585 475 LINE",
"416 475 LINE",
"312 390 LINE",
"312 97 LINE",
"416 12 LINE",
"585 12 LINE",
"633 42 LINE",
"633 12 LINE",
"1091 12 LINE",
"1195 97 LINE",
"1195 514 LINE",
"1006 670 LINE",
"256 670 LINE",
"30 485 LINE",
"30 15 LINE",
"256 -170 LINE"
);
},
{
closed = 1;
nodes = (
"591 101 LINE",
"591 386 LINE",
"591 386 LINE",
"633 360 LINE",
"633 360 LINE",
"633 127 LINE",
"633 127 LINE",
"591 101 LINE"
);
}
);
width = 1225;
}
);
leftKerningGroup = at;
leftMetricsKey = O;
rightKerningGroup = at;
unicode = 0040;
},
{
glyphname = ampersand;
lastChange = "2019-01-02 21:31:45 +0000";
layers = (
{
layerId = "209BF778-B46C-485B-99E1-60046645AA57";
paths = (
{
closed = 1;
nodes = (
"873 124 LINE",
"824 184 LINE",
"873 224 LINE",
"731 401 LINE",
"667 349 LINE",
"635 389 LINE",
"635 389 LINE",
"721 459 LINE",
"721 585 LINE",
"617 670 LINE",
"168 670 LINE",
"64 585 LINE",
"64 445 LINE",
"172 357 LINE",
"172 357 LINE",
"30 239 LINE",
"30 85 LINE",
"134 0 LINE",
"598 0 LINE",
"648 41 LINE",
"697 -19 LINE"
);
},
{
closed = 1;
nodes = (
"377 115 LINE",
"377 182 LINE",
"437 230 LINE",
"437 230 LINE",
"469 190 LINE",
"469 190 LINE",
"377 115 LINE"
);
},
{
closed = 1;
nodes = (
"377 464 LINE",
"377 546 LINE",
"377 546 LINE",
"429 546 LINE",
"429 546 LINE",
"429 464 LINE",
"429 464 LINE",
"377 464 LINE"
);
}
);
width = 903;
}
);
leftKerningGroup = ampersand;
leftMetricsKey = H;
rightKerningGroup = ampersand;
rightMetricsKey = O;
unicode = 0026;
},
{
glyphname = paragraph;
lastChange = "2019-01-02 21:31:45 +0000";
layers = (
{
layerId = "209BF778-B46C-485B-99E1-60046645AA57";
paths = (
{
closed = 1;
nodes = (
"555 153 LINE",
"555 669 LINE",
"157 669 LINE",
"25 539 LINE",
"25 283 LINE",
"157 153 LINE"
);
},
{
closed = 1;
nodes = (
"568 -113 LINE",
"568 669 LINE",
"298 669 LINE",
"298 -113 LINE"
);
},
{
closed = 1;
nodes = (
"890 -113 LINE",
"890 669 LINE",
"620 669 LINE",
"620 -113 LINE"
);
},
{
closed = 1;
nodes = (
"958 529 LINE",
"958 669 LINE",
"536 669 LINE",
"531 529 LINE"
);
}
);
width = 986;
}
);
leftKerningGroup = paragraph;
leftMetricsKey = d;
rightKerningGroup = paragraph;
rightMetricsKey = h;
unicode = 00B6;
},
{
glyphname = section;
lastChange = "2019-01-02 21:31:45 +0000";
layers = (
{
layerId = "209BF778-B46C-485B-99E1-60046645AA57";
paths = (
{
closed = 1;
nodes = (
"526 -60 LINE",
"630 25 LINE",
"630 120 LINE",
"563 175 LINE",
"630 230 LINE",
"630 373 LINE",
"501 478 LINE",
"360 478 LINE",
"360 478 LINE",
"360 530 LINE",
"360 530 LINE",
"594 530 LINE",
"594 670 LINE",
"174 670 LINE",
"70 585 LINE",
"70 490 LINE",
"137 435 LINE",
"70 380 LINE",
"70 236 LINE",
"199 131 LINE",
"360 131 LINE",
"360 131 LINE",
"360 79 LINE",
"360 79 LINE",
"90 80 LINE",
"90 -60 LINE"
);
},
{
closed = 1;
nodes = (
"283 279 LINE",
"283 331 LINE",
"283 331 LINE",
"417 331 LINE",
"417 331 LINE",
"417 279 LINE",
"417 279 LINE",
"283 279 LINE"
);
}
);
width = 700;
}
);
leftKerningGroup = section;
rightKerningGroup = section;
unicode = 00A7;
},
{
glyphname = copyright;
lastChange = "2019-01-02 21:31:45 +0000";
layers = (
{
layerId = "209BF778-B46C-485B-99E1-60046645AA57";
paths = (
{
closed = 1;
nodes = (
"969 -170 LINE",
"1195 15 LINE",
"1195 485 LINE",
"969 670 LINE",
"256 670 LINE",
"30 485 LINE",
"30 15 LINE",
"256 -170 LINE"
);
},
{
closed = 1;
nodes = (
"270 90 LINE",
"270 410 LINE",
"401 517 LINE",
"824 517 LINE",
"955 410 LINE",
"955 90 LINE",
"824 -17 LINE",
"401 -17 LINE"
);
},
{
closed = 1;
nodes = (
"809 25 LINE",
"913 110 LINE",
"913 231 LINE",
"634 231 LINE",
"634 110 LINE",
"592 110 LINE",
"592 390 LINE",
"634 390 LINE",
"634 273 LINE",
"913 273 LINE",
"913 390 LINE",
"809 475 LINE",
"417 475 LINE",
"313 390 LINE",
"313 110 LINE",
"417 25 LINE"
);
}
);
width = 1225;
}
);
leftKerningGroup = copyright;
leftMetricsKey = O;
rightKerningGroup = copyright;
rightMetricsKey = O;
unicode = 00A9;
},
{
glyphname = registered;
lastChange = "2019-01-02 21:31:45 +0000";
layers = (
{
layerId = "209BF778-B46C-485B-99E1-60046645AA57";
paths = (
{
closed = 1;
nodes = (
"256 670 LINE",
"30 485 LINE",
"30 15 LINE",
"256 -170 LINE",
"969 -170 LINE",
"1195 15 LINE",
"1195 485 LINE",
"969 670 LINE"
);
},
{
closed = 1;
nodes = (
"918 60 LINE",
"867 214 LINE",
"912 251 LINE",
"912 391 LINE",
"809 475 LINE",
"350 475 LINE",
"401 517 LINE",
"824 517 LINE",
"955 410 LINE",
"955 90 LINE"
);
},
{
closed = 1;
nodes = (
"313 445 LINE",
"313 55 LINE",
"270 90 LINE",
"270 410 LINE"
);
},
{
closed = 1;
nodes = (
"592 390 LINE",
"634 390 LINE",
"634 275 LINE",
"592 275 LINE"
);
},
{
closed = 1;
nodes = (
"350 25 LINE",
"592 25 LINE",
"592 172 LINE",
"612 172 LINE",
"645 25 LINE",
"879 28 LINE",
"824 -17 LINE",
"401 -17 LINE"
);
}
);
width = 1225;
}
);
leftKerningGroup = registered;
rightKerningGroup = registered;
unicode = 00AE;
},
{
glyphname = trademark;
lastChange = "2019-01-02 21:31:45 +0000";
layers = (
{
layerId = "209BF778-B46C-485B-99E1-60046645AA57";
paths = (
{
closed = 1;
nodes = (
"660 247 LINE",
"660 401 LINE",
"660 401 LINE",
"700 282 LINE",
"753 282 LINE",
"794 401 LINE",
"794 401 LINE",
"794 247 LINE",
"1002 247 LINE",
"1002 670 LINE",
"769 670 LINE",
"727 520 LINE",
"685 670 LINE",
"452 670 LINE",
"452 247 LINE"
);
},
{
closed = 1;
nodes = (
"320 247 LINE",
"320 534 LINE",
"422 534 LINE",
"422 670 LINE",
"10 670 LINE",
"10 534 LINE",
"112 534 LINE",
"112 247 LINE"
);
}
);
width = 1032;
}
);
leftKerningGroup = trademark;
rightKerningGroup = trademark;
rightMetricsKey = H;
unicode = 2122;
},
{
glyphname = degree;
lastChange = "2019-01-02 21:31:45 +0000";
layers = (
{
hints = (
{
horizontal = 1;
origin = "{0, 1}";
target = "{1, 1}";
type = Stem;
},
{
horizontal = 1;
origin = "{1, 2}";
target = "{0, 0}";
type = Stem;
},
{
place = "{30, 152}";
type = Stem;
},
{
place = "{234, 152}";
type = Stem;
},
{
origin = "{0, 0}";
type = Corner;
name = _corner.dia_esq;
options = 1;
},
{
origin = "{0, 2}";
type = Corner;
name = _corner.dia_esq;
options = 1;
},
{
origin = "{0, 3}";
type = Corner;
name = _corner.dia_dir;
options = 1;
},
{
origin = "{0, 1}";
type = Corner;
name = _corner.dia_dir;
options = 1;
}
);
layerId = "209BF778-B46C-485B-99E1-60046645AA57";
paths = (
{
closed = 1;
nodes = (
"30 670 LINE",
"30 310 LINE",
"386 310 LINE",
"386 670 LINE"
);
},
{
closed = 1;
nodes = (
"234 464 LINE",
"182 464 LINE",
"182 516 LINE",
"234 516 LINE"
);
}
);
width = 416;
}
);
leftKerningGroup = degree;
rightKerningGroup = degree;
unicode = 00B0;
},
{
glyphname = bar;
lastChange = "2019-01-02 21:31:45 +0000";
layers = (
{
layerId = "209BF778-B46C-485B-99E1-60046645AA57";
paths = (
{
closed = 1;
nodes = (
"300 -126 LINE",
"300 736 LINE",
"30 736 LINE",
"30 -126 LINE"
);
}
);
width = 330;
}
);
leftKerningGroup = bar;
leftMetricsKey = H;
rightKerningGroup = bar;
rightMetricsKey = H;
unicode = 007C;
},
{
glyphname = brokenbar;
lastChange = "2019-01-02 21:31:45 +0000";
layers = (
{
layerId = "209BF778-B46C-485B-99E1-60046645AA57";
paths = (
{
closed = 1;
nodes = (
"300 410 LINE",
"300 736 LINE",
"30 736 LINE",
"30 410 LINE"
);
},
{
closed = 1;
nodes = (
"300 -126 LINE",
"300 200 LINE",
"30 200 LINE",
"30 -126 LINE"
);
}
);
width = 330;
}
);
leftKerningGroup = brokenbar;
leftMetricsKey = H;
rightKerningGroup = brokenbar;
rightMetricsKey = H;
unicode = 00A6;
},
{
glyphname = dagger;
lastChange = "2019-01-02 21:31:45 +0000";
layers = (
{
layerId = "209BF778-B46C-485B-99E1-60046645AA57";
paths = (
{
closed = 1;
nodes = (
"408 -36 LINE",
"408 620 LINE",
"138 620 LINE",
"138 -36 LINE"
);
},
{
closed = 1;
nodes = (
"536 298 LINE",
"536 462 LINE",
"10 462 LINE",
"10 298 LINE"
);
}
);
width = 546;
}
);
leftKerningGroup = dagger;
leftMetricsKey = T;
rightKerningGroup = dagger;
rightMetricsKey = T;
unicode = 2020;
},
{
glyphname = daggerdbl;
lastChange = "2019-01-02 21:31:45 +0000";
layers = (
{
layerId = "209BF778-B46C-485B-99E1-60046645AA57";
paths = (
{
closed = 1;
nodes = (
"408 -36 LINE",
"408 620 LINE",
"138 620 LINE",
"138 -36 LINE"
);
},
{
closed = 1;
nodes = (
"536 92 LINE",
"536 256 LINE",
"10 256 LINE",
"10 92 LINE"
);
},
{
closed = 1;
nodes = (
"536 328 LINE",
"536 492 LINE",
"10 492 LINE",
"10 328 LINE"
);
}
);
width = 546;
}
);
leftKerningGroup = daggerdbl;
leftMetricsKey = T;
rightKerningGroup = daggerdbl;
rightMetricsKey = T;
unicode = 2021;
},
{
glyphname = numero;
lastChange = "2019-01-02 21:31:45 +0000";
layers = (
{
components = (
{
name = N;
}
);
layerId = "209BF778-B46C-485B-99E1-60046645AA57";
paths = (
{
closed = 1;
nodes = (
"1060 310 LINE",
"1164 395 LINE",
"1164 585 LINE",
"1060 670 LINE",
"912 670 LINE",
"808 585 LINE",
"808 395 LINE",
"912 310 LINE"
);
},
{
closed = 1;
nodes = (
"960 516 LINE",
"1012 516 LINE",
"1012 464 LINE",
"960 464 LINE"
);
},
{
closed = 1;
nodes = (
"1114 97 LINE",
"1114 258 LINE",
"858 258 LINE",
"858 97 LINE"
);
}
);
width = 1194;
}
);
leftMetricsKey = N;
rightMetricsKey = N;
unicode = 2116;
},
{
glyphname = dieresiscomb;
lastChange = "2019-01-02 21:31:45 +0000";
layers = (
{
anchors = (
{
name = _top;
position = "{325, 670}";
}
);
layerId = "209BF778-B46C-485B-99E1-60046645AA57";
paths = (
{
closed = 1;
nodes = (
"304 712 LINE",
"304 865 LINE",
"55 865 LINE",
"55 712 LINE"
);
},
{
closed = 1;
nodes = (
"595 712 LINE",
"595 865 LINE",
"346 865 LINE",
"346 712 LINE"
);
}
);
width = 650;
}
);
unicode = 0308;
},
{
glyphname = dotaccentcomb;
lastChange = "2019-03-05 20:22:32 +0000";
layers = (
{
anchors = (
{
name = _top;
position = "{170, 475}";
}
);
layerId = "209BF778-B46C-485B-99E1-60046645AA57";
paths = (
{
closed = 1;
nodes = (
"309 517 LINE",
"309 670 LINE",
"30 670 LINE",
"30 517 LINE"
);
}
);
width = 337;
}
);
leftMetricsKey = n;
rightMetricsKey = n;
unicode = 0307;
},
{
glyphname = acutecomb;
lastChange = "2019-03-20 23:23:42 +0000";
layers = (
{
anchors = (
{
name = _top;
position = "{104, 670}";
}
);
layerId = "209BF778-B46C-485B-99E1-60046645AA57";
paths = (
{
closed = 1;
nodes = (
"197 712 LINE",
"353 865 LINE",
"123 865 LINE",
"20 712 LINE"
);
}
);
width = 373;
}
);
unicode = 0301;
},
{
glyphname = hungarumlautcomb;
lastChange = "2019-01-02 21:31:45 +0000";
layers = (
{
anchors = (
{
name = _top;
position = "{232, 670}";
}
);
layerId = "209BF778-B46C-485B-99E1-60046645AA57";
paths = (
{
closed = 1;
nodes = (
"197 712 LINE",
"353 865 LINE",
"107 865 LINE",
"20 712 LINE"
);
},
{
closed = 1;
nodes = (
"459 712 LINE",
"615 865 LINE",
"369 865 LINE",
"282 712 LINE"
);
}
);
width = 635;
}
);
unicode = 030B;
},
{
glyphname = circumflexcomb;
lastChange = "2019-01-02 21:31:45 +0000";
layers = (
{
anchors = (
{
name = _top;
position = "{286, 670}";
}
);
layerId = "209BF778-B46C-485B-99E1-60046645AA57";
paths = (
{
closed = 1;
nodes = (
"215 712 LINE",
"286 782 LINE",
"286 782 LINE",
"357 712 LINE",
"552 712 LINE",
"435 865 LINE",
"137 865 LINE",
"20 712 LINE"
);
}
);
width = 572;
}
);
unicode = 0302;
},
{
glyphname = brevecomb;
lastChange = "2019-01-02 21:31:45 +0000";
layers = (
{
anchors = (
{
name = _top;
position = "{266, 670}";
}
);
layerId = "209BF778-B46C-485B-99E1-60046645AA57";
paths = (
{
closed = 1;
nodes = (
"408 712 LINE",
"512 797 LINE",
"512 865 LINE",
"307 865 LINE",
"307 822 LINE",
"225 822 LINE",
"225 865 LINE",
"20 865 LINE",
"20 797 LINE",
"124 712 LINE"
);
}
);
width = 532;
}
);
unicode = 0306;
},
{
glyphname = ringcomb;
lastChange = "2019-02-18 18:18:41 +0000";
layers = (
{
anchors = (
{
name = _top;
position = "{151, 670}";
}
);
layerId = "209BF778-B46C-485B-99E1-60046645AA57";
paths = (
{
closed = 1;
nodes = (
"210 712 LINE",
"282 784 LINE",
"282 866 LINE",
"210 938 LINE",
"92 938 LINE",
"20 866 LINE",
"20 784 LINE",
"92 712 LINE"
);
},
{
closed = 1;
nodes = (
"135 819 LINE",
"135 831 LINE",
"145 841 LINE",
"157 841 LINE",
"167 831 LINE",
"167 819 LINE",
"157 809 LINE",
"145 809 LINE"
);
}
);
width = 302;
}
);
unicode = 030A;
},
{
glyphname = tildecomb;
lastChange = "2019-01-02 21:31:45 +0000";
layers = (
{
anchors = (
{
name = _top;
position = "{263, 670}";
}
);
background = {
paths = (
{
closed = 1;
nodes = (
"490 712 LINE",
"490 865 LINE",
"20 865 LINE",
"20 712 LINE"
);
}
);
};
layerId = "209BF778-B46C-485B-99E1-60046645AA57";
paths = (
{
closed = 1;
nodes = (
"161 717 LINE",
"161 755 LINE",
"193 755 LINE",
"243 712 LINE",
"421 712 LINE",
"505 781 LINE",
"505 865 LINE",
"364 865 LINE",
"364 827 LINE",
"332 827 LINE",
"282 870 LINE",
"104 870 LINE",
"20 801 LINE",
"20 717 LINE"
);
}
);
width = 525;
}
);
unicode = 0303;
},
{
glyphname = macroncomb;
lastChange = "2019-01-02 21:31:45 +0000";
layers = (
{
anchors = (
{
name = _top;
position = "{255, 670}";
}
);
layerId = "209BF778-B46C-485B-99E1-60046645AA57";
paths = (
{
closed = 1;
nodes = (
"525 712 LINE",
"525 865 LINE",
"-15 865 LINE",
"-15 712 LINE"
);
}
);
width = 510;
}
);
unicode = 0304;
},
{
glyphname = hookabovecomb;
lastChange = "2019-01-02 21:31:45 +0000";
layers = (
{
anchors = (
{
name = _top;
position = "{200, 670}";
}
);
layerId = "209BF778-B46C-485B-99E1-60046645AA57";
paths = (
{
closed = 1;
nodes = (
"300 711 LINE",
"300 740 LINE",
"336 740 LINE",
"385 789 LINE",
"385 886 LINE",
"326 936 LINE",
"79 936 LINE",
"20 886 LINE",
"20 825 LINE",
"183 825 LINE",
"183 873 LINE",
"218 873 LINE",
"218 800 LINE",
"142 800 LINE",
"100 758 LINE",
"100 711 LINE"
);
}
);
width = 405;
}
);
unicode = 0309;
},
{
glyphname = dblgravecomb;
lastChange = "2019-03-23 15:02:22 +0000";
layers = (
{
anchors = (
{
name = _top;
position = "{396, 670}";
}
);
layerId = "209BF778-B46C-485B-99E1-60046645AA57";
paths = (
{
closed = 1;
nodes = (
"615 712 LINE",
"512 865 LINE",
"282 865 LINE",
"438 712 LINE"
);
},
{
closed = 1;
nodes = (
"353 712 LINE",
"250 865 LINE",
"20 865 LINE",
"176 712 LINE"
);
}
);
width = 633;
}
);
unicode = 030F;
},
{
glyphname = breveinvertedcomb;
lastChange = "2019-01-02 21:31:45 +0000";
layers = (
{
anchors = (
{
name = _top;
position = "{235, 670}";
}
);
layerId = "209BF778-B46C-485B-99E1-60046645AA57";
paths = (
{
closed = 1;
nodes = (
"178 712 LINE",
"178 750 LINE",
"292 750 LINE",
"292 712 LINE",
"450 712 LINE",
"450 786 LINE",
"363 865 LINE",
"106 865 LINE",
"20 786 LINE",
"20 712 LINE"
);
}
);
width = 470;
}
);
unicode = 0311;
},
{
glyphname = horncomb;
lastChange = "2019-01-02 21:31:45 +0000";
layers = (
{
anchors = (
{
name = _horn;
position = "{20, 565}";
}
);
layerId = "209BF778-B46C-485B-99E1-60046645AA57";
paths = (
{
closed = 1;
nodes = (
"200 520 LINE",
"347 707 LINE",
"95 707 LINE",
"77 605 LINE",
"20 605 LINE",
"20 520 LINE"
);
}
);
width = 367;
}
);
unicode = 031B;
},
{
glyphname = dotbelowcomb;
lastChange = "2019-04-12 11:47:17 +0000";
layers = (
{
anchors = (
{
name = _bottom;
position = "{170, 0}";
}
);
guideLines = (
{
position = "{263, -20}";
}
);
layerId = "209BF778-B46C-485B-99E1-60046645AA57";
paths = (
{
closed = 1;
nodes = (
"309 -195 LINE",
"309 -42 LINE",
"30 -42 LINE",
"30 -195 LINE"
);
}
);
width = 337;
}
);
unicode = 0323;
},
{
glyphname = commaaccentcomb;
lastChange = "2019-04-10 22:24:42 +0000";
layers = (
{
anchors = (
{
name = _botton;
position = "{193, 0}";
}
);
layerId = "209BF778-B46C-485B-99E1-60046645AA57";
paths = (
{
closed = 1;
nodes = (
"193 -208 LINE",
"331 -42 LINE",
"79 -42 LINE",
"28 -208 LINE"
);
}
);
width = 343;
}
);
unicode = 0326;
},
{
glyphname = cedillacomb;
lastChange = "2019-01-02 21:31:45 +0000";
layers = (
{
anchors = (
{
name = _botton;
position = "{147, 0}";
}
);
layerId = "209BF778-B46C-485B-99E1-60046645AA57";
paths = (
{
closed = 1;
nodes = (
"191 -114 LINE",
"255 0 LINE",
"39 0 LINE",
"20 -114 LINE"
);
}
);
width = 275;
}
);
unicode = 0327;
},
{
glyphname = ogonekcomb;
lastChange = "2019-01-02 21:31:45 +0000";
layers = (
{
anchors = (
{
name = _ogonek;
position = "{191, 0}";
}
);
layerId = "209BF778-B46C-485B-99E1-60046645AA57";
paths = (
{
closed = 1;
nodes = (
"196 -180 LINE",
"196 -50 LINE",
"177 -50 LINE",
"165 -40 LINE",
"165 -21 LINE",
"191 0 LINE",
"67 0 LINE",
"25 -30 LINE",
"25 -115 LINE",
"105 -180 LINE"
);
}
);
width = 211;
}
);
unicode = 0328;
},
{
glyphname = strokeshortcomb;
lastChange = "2019-01-02 21:31:45 +0000";
layers = (
{
anchors = (
{
name = _center;
position = "{210, 234}";
}
);
layerId = "209BF778-B46C-485B-99E1-60046645AA57";
paths = (
{
closed = 1;
nodes = (
"440 166 LINE",
"440 302 LINE",
"30 302 LINE",
"30 166 LINE"
);
}
);
width = 470;
}
);
unicode = 0335;
},
{
glyphname = slashshortcomb;
lastChange = "2019-02-10 20:53:19 +0000";
layers = (
{
anchors = (
{
name = _center;
position = "{225, 238}";
}
);
layerId = "209BF778-B46C-485B-99E1-60046645AA57";
paths = (
{
closed = 1;
nodes = (
"47 -60 LINE",
"419 524 LINE",
"402 535 LINE",
"30 -49 LINE"
);
}
);
width = 449;
}
);
unicode = 0337;
},
{
glyphname = slashlongcomb;
lastChange = "2019-02-09 17:37:27 +0000";
layers = (
{
guideLines = (
{
position = "{160, 730}";
}
);
layerId = "209BF778-B46C-485B-99E1-60046645AA57";
paths = (
{
closed = 1;
nodes = (
"593 662 LINE",
"487 730 LINE",
"30 10 LINE",
"137 -60 LINE"
);
}
);
width = 623;
}
);
leftMetricsKey = i;
rightMetricsKey = i;
unicode = 0338;
},
{
glyphname = hungarumlaut;
lastChange = "2019-01-02 21:31:45 +0000";
layers = (
{
anchors = (
{
name = _top;
position = "{232, 670}";
}
);
layerId = "209BF778-B46C-485B-99E1-60046645AA57";
paths = (
{
closed = 1;
nodes = (
"197 712 LINE",
"353 865 LINE",
"107 865 LINE",
"20 712 LINE"
);
},
{
closed = 1;
nodes = (
"459 712 LINE",
"615 865 LINE",
"369 865 LINE",
"282 712 LINE"
);
}
);
width = 635;
}
);
unicode = 02DD;
},
{
export = 0;
glyphname = _corner.dia_dir;
lastChange = "2019-01-02 21:31:45 +0000";
layers = (
{
anchors = (
{
name = left;
position = "{129, 380}";
},
{
name = origin;
position = "{214, 380}";
},
{
name = right;
position = "{214, 484}";
}
);
layerId = "209BF778-B46C-485B-99E1-60046645AA57";
paths = (
{
closed = 0;
nodes = (
"129 380 LINE",
"214 484 LINE"
);
}
);
width = 600;
}
);
},
{
export = 0;
glyphname = _corner.dia_esq;
lastChange = "2019-01-02 21:31:45 +0000";
layers = (
{
anchors = (
{
name = left;
position = "{70, 390}";
},
{
name = origin;
position = "{174, 390}";
},
{
name = right;
position = "{174, 475}";
}
);
layerId = "209BF778-B46C-485B-99E1-60046645AA57";
paths = (
{
closed = 0;
nodes = (
"70 390 LINE",
"174 475 LINE"
);
}
);
width = 600;
}
);
},
{
glyphname = _part.H;
lastChange = "2019-01-02 21:31:45 +0000";
layers = (
{
layerId = "209BF778-B46C-485B-99E1-60046645AA57";
paths = (
{
closed = 1;
nodes = (
"360 0 LINE",
"360 670 LINE",
"30 670 LINE",
"30 0 LINE"
);
}
);
width = 390;
}
);
},
{
glyphname = _part.i;
lastChange = "2019-01-02 21:31:45 +0000";
layers = (
{
anchors = (
{
name = top;
position = "{170, 475}";
}
);
layerId = "209BF778-B46C-485B-99E1-60046645AA57";
paths = (
{
closed = 1;
nodes = (
"309 0 LINE",
"309 475 LINE",
"30 475 LINE",
"30 0 LINE"
);
}
);
width = 339;
}
);
},
{
glyphname = _part.n;
lastChange = "2019-01-02 21:31:45 +0000";
layers = (
{
hints = (
{
origin = "{0, 4}";
type = Corner;
name = _corner.dia_dir;
options = 1;
}
);
layerId = "209BF778-B46C-485B-99E1-60046645AA57";
paths = (
{
closed = 1;
nodes = (
"32 386 LINE",
"32 386 LINE",
"32 0 LINE",
"311 0 LINE",
"311 475 LINE",
"38 475 LINE",
"-60 414 LINE",
"-60 329 LINE"
);
}
);
width = 339;
}
);
},
{
export = 0;
glyphname = _part.b;
lastChange = "2019-01-02 21:31:45 +0000";
layers = (
{
hints = (
{
origin = "{0, 2}";
type = Corner;
name = _corner.dia_dir;
options = 1;
},
{
origin = "{0, 1}";
type = Corner;
name = _corner.dia_esq;
options = 1;
}
);
layerId = "209BF778-B46C-485B-99E1-60046645AA57";
paths = (
{
closed = 1;
nodes = (
"334 0 LINE",
"600 0 LINE",
"600 475 LINE",
"327 475 LINE",
"259 433 LINE",
"259 348 LINE",
"321 386 LINE",
"321 85 LINE",
"259 85 LINE",
"259 0 LINE"
);
}
);
width = 628;
}
);
},
{
export = 0;
glyphname = _part.l;
lastChange = "2019-01-02 21:31:45 +0000";
layers = (
{
layerId = "209BF778-B46C-485B-99E1-60046645AA57";
paths = (
{
closed = 1;
nodes = (
"310 0 LINE",
"310 670 LINE",
"30 670 LINE",
"30 0 LINE"
);
}
);
width = 338;
}
);
},
{
export = 0;
glyphname = _part.p;
lastChange = "2019-01-02 21:31:45 +0000";
layers = (
{
layerId = "209BF778-B46C-485B-99E1-60046645AA57";
paths = (
{
closed = 1;
nodes = (
"310 -170 LINE",
"310 475 LINE",
"30 475 LINE",
"30 -170 LINE"
);
}
);
width = 338;
}
);
},
